<?xml version="1.0" encoding="UTF-8" standalone="no"?>
<svg
   version="1.1"
   width="850"
   height="850"
   id="svg123"
   xmlns="http://www.w3.org/2000/svg"
   xmlns:svg="http://www.w3.org/2000/svg">
  <defs
     id="defs123" />
  <path
     d="m 46.679566,55.671996 c -15.50703,16.7381 -26.34963,36.597454 -32.4812,58.526374 l -0.58447,2.05078 c -5.5947568,20.09624 -6.8697758,40.8564 -6.8032098,61.61591 -0.0042,2.1704 -0.0097,4.34081 -0.01632,6.51121 -0.0143,5.88899 -0.01026,11.77784 -0.0028,17.66683 0.0048,6.38056 -0.0078,12.76108 -0.01802,19.14163 -0.01614,11.75249 -0.01865,23.50493 -0.01369,35.25742 0.0046,10.86358 0.0039,21.72715 -0.0018,32.59073 l -0.0023,4.38941 c -0.0011,2.20542 -0.0023,4.41085 -0.0035,6.61627 -0.01069,20.4753 -0.01545,40.95058 -0.0075,61.42587 l 9.01e-4,2.33362 c 0.0024,6.25175 0.0051,12.5035 0.0077,18.75525 0.0101,24.37325 0.0017,48.74644 -0.0215,73.11968 -0.02614,27.4519 -0.0389,54.90375 -0.03181,82.35567 7.16e-4,2.93331 0.0014,5.86663 0.002,8.79995 l 5.15e-4,2.18828 c 0.0023,10.8472 -0.0056,21.69437 -0.01881,32.54156 -0.01499,12.35187 -0.01528,24.70364 0.0021,37.05552 0.0085,6.29012 0.01077,12.58007 -0.0047,18.87019 -0.111824,49.18875 2.420322,98.91636 36.5172138,137.71422 l 2.14453,2.54687 c 26.19099,30.391 65.077304,42.96568 103.855474,46.45313 7.83489,0.46107 15.67674,0.40764 23.52208,0.38095 2.26329,0.003 4.52658,0.008 6.78986,0.0142 6.14562,0.0124 12.2911,0.006 18.43672,-0.003 5.97053,-0.006 11.94103,0.002 17.91155,0.009 12.94771,0.0157 25.89537,0.0145 38.84308,0.006 11.33202,-0.008 22.66402,-0.01 33.99604,-0.006 l 2.28618,6.9e-4 c 3.06326,9.4e-4 6.12651,0.002 9.18977,0.003 28.68158,0.009 57.36313,8.9e-4 86.0447,-0.0153 25.42719,-0.0142 50.85434,-0.013 76.28153,0.001 28.63078,0.0161 57.26153,0.0224 85.89231,0.0132 3.05768,-9.7e-4 6.11535,-0.002 9.17303,-0.003 l 2.28111,-7.2e-4 c 11.31834,-0.003 22.63665,5.5e-4 33.95499,0.008 12.88298,0.009 25.76591,0.006 38.64888,-0.01 6.56312,-0.008 13.12618,-0.011 19.68931,-0.001 6.02477,0.009 12.04937,0.004 18.07413,-0.0119 2.16256,-0.003 4.32514,-0.002 6.4877,0.006 42.807,0.13444 87.10674,-8.10527 119.27828,-38.34872 2.21875,-2.0424 2.21875,-2.0424 4.80078,-4.09318 21.90145,-17.65561 33.3428,-48.23602 38.41797,-74.94922 l 0.44141,-2.25879 c 3.52219,-18.2694 3.70819,-36.53332 3.6923,-55.08136 0.002,-2.09938 0.004,-4.19876 0.007,-6.29814 0.006,-5.72026 0.006,-11.44051 0.005,-17.16077 -2e-4,-6.18831 0.005,-12.37661 0.0101,-18.56491 0.008,-12.10483 0.0111,-24.20965 0.0116,-36.31449 4.6e-4,-9.84444 0.003,-19.68888 0.006,-29.53332 9e-4,-2.84162 0.002,-5.68323 0.003,-8.52484 l 6.7e-4,-2.14115 c 0.006,-19.85227 0.0101,-39.70454 0.01,-59.5568 l -5e-5,-2.26435 c -8e-5,-3.78663 -1.8e-4,-7.57326 -2.9e-4,-11.3599 l -6e-5,-2.2786 -1.2e-4,-4.56179 c -6.1e-4,-23.65388 0.007,-47.30775 0.0206,-70.96163 0.0154,-26.62117 0.024,-53.24233 0.023,-79.8635 -8e-5,-2.84287 -1.3e-4,-5.68574 -1.6e-4,-8.52861 l -3e-5,-2.12092 c -3e-5,-11.22148 0.006,-22.44294 0.015,-33.66441 0.009,-11.29213 0.009,-22.58423 0.003,-33.87635 -0.003,-6.10702 -0.003,-12.214 0.005,-18.32101 0.008,-5.60478 0.006,-11.20947 -0.002,-16.81425 -0.002,-2.01329 2.3e-4,-4.0266 0.006,-6.03989 0.0469,-18.00074 -0.77745,-36.06192 -4.50545,-53.72272 l -0.65503,-3.15991 C 830.74978,89.32659 810.77432,57.489136 780.90149,37.491336 757.143,22.489056 731.09956,14.877816 703.19837,12.198366 l -2.45678,-0.249144 c -10.64472,-0.959497 -21.26589,-0.893333 -31.94526,-0.884569 -2.16717,-0.0019 -4.33434,-0.0042 -6.50152,-0.0069 -5.93099,-0.0061 -11.86197,-0.006 -17.79297,-0.0048 -6.40659,2.05e-4 -12.81316,-0.0053 -19.21975,-0.01006 -12.54434,-0.0083 -25.08868,-0.01107 -37.63302,-0.01161 -10.20352,-4.6e-4 -20.40704,-0.0025 -30.61056,-0.0057 -2.9423,-8.98e-4 -5.8846,-0.0018 -8.8269,-0.0027 l -2.21691,-6.7e-4 c -20.56851,-0.0062 -41.13702,-0.0101 -61.70554,-0.0097 l -2.34811,4.7e-5 c -3.92695,8.4e-5 -7.85389,1.83e-4 -11.78083,2.85e-4 l -2.36312,6.1e-5 c -1.577,4e-5 -3.15401,8.2e-5 -4.73101,1.25e-4 -24.51239,6.12e-4 -49.02477,-0.0069 -73.53715,-0.02057 -27.57557,-0.01539 -55.15113,-0.02396 -82.7267,-0.02304 -2.94608,7.4e-5 -5.89215,1.23e-4 -8.83822,1.54e-4 l -2.19797,3.5e-5 c -11.62564,3.1e-5 -23.25126,-0.0063 -34.87689,-0.01497 -11.70614,-0.0085 -23.41227,-0.0093 -35.11841,-0.0029 -6.33013,0.0033 -12.66023,0.0034 -18.99036,-0.0054 -5.81238,-0.0079 -11.62468,-0.0064 -17.43705,0.0023 -2.08551,0.0015 -4.17102,-2.25e-4 -6.25652,-0.0059 C 133.08236,10.816926 82.94176,18.166716 46.679566,55.671996 Z"
     fill="#fcfefe"
     id="path2"
     style="fill:#a9b4bf;fill-opacity:0.568063;stroke:#000000;stroke-width:2;stroke-dasharray:none;stroke-opacity:0.764398" />
  <path
     d="m 328.58899,128.93274 c 25.30243,6.64743 46.94345,21.93093 60.60938,44.26563 11.16717,19.75321 15.78915,40.73741 19,63 0.14695,-0.96938 0.2939,-1.93875 0.44531,-2.9375 4.17945,-25.665 16.29896,-50.25425 37.24804,-66.36475 13.65644,-9.80254 32.94719,-20.41226 50.30664,-17.69775 3,1.125 3,1.125 5,3 5.85751,14.70607 0.38627,34.84974 -5.53125,48.92187 -4.94943,10.37276 -10.74804,19.50401 -18.46875,28.07813 -0.67417,0.75667 -1.34835,1.51335 -2.04296,2.29296 -9.16933,9.71984 -20.47301,16.85422 -31.76953,23.83204 -10.94608,6.80716 -19.85772,12.76443 -23.71349,25.63006 -0.58478,2.76954 -0.6377,5.37556 -0.67934,8.20685 -0.0199,1.20094 -0.0399,2.40189 -0.0604,3.63922 -0.0167,1.29178 -0.0334,2.58356 -0.0506,3.91449 -0.0206,1.3395 -0.0416,2.679 -0.063,4.01849 -0.0551,3.51804 -0.10455,7.03613 -0.15284,10.55426 -0.0503,3.59299 -0.10596,7.1859 -0.16114,10.77881 -0.1074,7.0442 -0.20889,14.08847 -0.30664,21.13281 -1.09941,-0.16226 -2.19882,-0.32452 -3.33154,-0.49169 -2.99675,-0.41523 -5.77808,-0.643 -8.79346,-0.63331 -1.21043,-0.004 -1.21043,-0.004 -2.44531,-0.008 -2.55724,0.13979 -4.92626,0.6086 -7.42969,1.13281 -0.005,-1.15059 -0.005,-1.15059 -0.0111,-2.32443 -0.038,-7.26694 -0.0951,-14.53337 -0.17285,-21.79998 -0.0393,-3.73491 -0.0716,-7.46959 -0.0871,-11.20469 -0.0153,-3.61186 -0.0499,-7.22308 -0.0973,-10.83466 -0.0147,-1.37047 -0.0227,-2.74104 -0.0236,-4.11159 -0.0134,-10.75736 -1.59401,-20.09607 -8.48703,-28.67367 -6.88474,-6.65652 -15.84154,-11.28949 -23.99292,-16.21387 -32.03391,-19.35882 -54.11897,-44.88149 -63.43677,-81.44238 -1.50514,-7.38966 -1.89888,-14.56065 -1.9414,-22.08203 -0.0206,-0.92362 -0.0412,-1.84723 -0.0625,-2.79883 -0.0286,-4.96763 -0.0458,-8.55784 3.3125,-12.51367 7.15333,-6.61757 18.89276,-2.3423 27.39062,-0.26563 z"
     fill="#fd4439"
     id="path3" />
  <path
     d="m 191.65931,350.17493 c 6.06223,5.69971 11.96028,13.4253 12.71606,22.04126 0.53517,20.07421 0.53517,20.07421 -4.177,27.98218 -0.59812,1.05187 -1.19625,2.10375 -1.8125,3.1875 -5.4288,6.97989 -10.87884,11.51637 -19.1875,14.8125 -0.66,0 -1.32,0 -2,0 0.0951,4.44367 0.20146,8.88691 0.31738,13.33008 0.0378,1.50481 0.0727,3.00969 0.1045,4.51464 0.4972,23.27543 3.5446,43.0988 21.00781,59.94043 4.86605,4.19309 10.22086,7.68025 15.57031,11.21485 8.20327,5.45779 15.93963,11.08545 23,18 1.04608,0.99193 1.04608,0.99193 2.11328,2.0039 11.13652,11.39601 14.98773,25.64158 18.36548,40.79615 2.26901,10.04321 4.7553,20.2837 12.20874,27.76245 6.16911,6.31426 6.16911,6.31426 6.6875,10.375 -0.375,3.0625 -0.375,3.0625 -2,5.4375 -2.375,1.625 -2.375,1.625 -5.0625,2.25 -6.79572,-1.28221 -12.6244,-6.04044 -16.84765,-11.42188 -6.88483,-10.35477 -9.94625,-20.97086 -12.88086,-32.90185 -2.62498,-10.34409 -6.03848,-19.73109 -12.58399,-28.30127 -0.7889,-1.04028 -0.7889,-1.04028 -1.59375,-2.10157 -5.446,-6.21338 -12.72545,-9.60216 -19.90234,-13.4375 -7.65775,-4.11658 -14.76457,-8.96783 -21.50391,-14.46093 0.26555,1.13695 0.5311,2.2739 0.80469,3.44531 1.11654,4.84082 2.16846,9.69412 3.19531,14.55469 0.23461,1.09828 0.46922,2.19656 0.71094,3.32812 3.07364,17.37278 2.03458,35.72321 -0.62573,53.06299 -3.02898,20.01843 0.11008,34.60752 10.24243,52.08667 7.59815,13.14735 11.02658,25.67401 10.98486,40.83472 0.0161,1.15951 0.0322,2.31902 0.0488,3.51367 0.01,16.963 0.01,16.963 -4.78198,22.94849 -1.57932,1.22534 -1.57932,1.22534 -4.51682,1.66284 -3.8325,-0.5475 -4.75161,-1.36951 -7.0625,-4.4375 -0.39062,-3.29297 -0.39062,-3.29297 -0.25,-7.1875 0.0152,-0.69835 0.0303,-1.3967 0.0459,-2.11621 0.0649,-2.97175 0.17614,-5.94125 0.28613,-8.91162 0.42112,-12.45327 -1.25335,-22.37121 -7.45703,-33.40967 -0.60328,-1.08668 -1.20656,-2.17336 -1.82812,-3.29297 -1.58338,-2.71583 -3.237,-5.36629 -4.92188,-8.01953 -5.78947,-9.48356 -8.79266,-20.06634 -9.1914,-31.11719 -0.0419,-1.10859 -0.0838,-2.21719 -0.12696,-3.35938 -0.0393,-1.1421 -0.0786,-2.28421 -0.11914,-3.46093 -0.0648,-1.74797 -0.0648,-1.74797 -0.13086,-3.53125 -0.10565,-2.86448 -0.20775,-5.72904 -0.30664,-8.59375 -16.3234,16.60092 -25.07065,30.92958 -28,54.5 -3.45825,27.82615 -3.45825,27.82615 -12,34.5 -3.16398,0.9546 -4.61755,0.6654 -8,0 -2.0625,-1.5625 -2.0625,-1.5625 -3,-4 0.0985,-4.62839 1.50166,-8.52064 2.96875,-12.89063 2.15942,-6.96255 2.90518,-13.68121 3.46875,-20.92187 2.16656,-23.06295 9.71332,-39.58253 25.07813,-57.04688 12.9013,-14.95917 18.92121,-28.61066 17.84375,-48.48242 -1.21997,-12.41852 -4.06503,-24.71004 -6.60327,-36.91382 -0.65448,-3.24111 -1.23681,-6.47931 -1.75611,-9.74438 -0.66644,0.75023 -1.33289,1.50047 -2.01953,2.27343 -6.97579,7.77573 -14.28782,14.86123 -22.23828,21.65625 -10.90085,9.32583 -16.9113,19.93867 -21.24219,33.57032 -4.35009,13.6454 -11.09205,28.40786 -23.5,36.5 -3.71443,0.6686 -5.22306,0.51114 -8.375,-1.5625 -2.2496,-3.37441 -2.01462,-5.4282 -1.625,-9.4375 1.79297,-3.14063 1.79297,-3.14063 4.1875,-6.25 5.74577,-7.84022 9.2266,-15.5276 11.88282,-24.88843 4.61173,-16.22753 10.95117,-27.97299 22.92968,-39.86157 0.65227,-0.67676 1.30453,-1.35352 1.97657,-2.05078 2.88459,-2.97021 5.89418,-5.7388 9.02343,-8.44922 1.33461,-1.16521 2.66798,-2.33184 4,-3.5 0.58782,-0.50789 1.17563,-1.01578 1.78125,-1.53907 12.92241,-11.92386 18.8498,-29.15877 19.63282,-46.34375 0.0787,-2.4138 0.1489,-4.82789 0.21093,-7.24218 0.0387,-1.24266 0.0773,-2.48532 0.11719,-3.76563 0.0934,-3.03632 0.17919,-6.07264 0.25781,-9.10937 -0.77488,-0.13721 -1.54977,-0.27441 -2.34814,-0.41577 -7.96138,-1.75397 -15.12697,-9.06165 -19.65186,-15.58423 -5.65255,-10.44344 -6.78863,-22.47709 -4.35156,-34.08985 4.34045,-11.74148 13.41353,-19.96878 24.55859,-25.16406 12.27174,-5.10654 27.29045,-0.77193 37.25391,7.23047 z"
     fill="#0aade6"
     id="path4" />
  <path
     d="m 428.55384,347.37415 c 7.95684,5.48869 13.25479,13.54778 16.25391,22.67969 1.96923,10.8111 0.59183,21.82753 -4.89454,31.38281 -4.59688,6.59442 -10.64995,12.33546 -17.87353,15.87793 -0.71959,0.35447 -1.43918,0.70894 -2.18057,1.07416 -0.82207,0.40076 -0.82207,0.40076 -1.66074,0.80963 -0.0702,7.67701 -0.12315,15.35398 -0.15544,23.03124 -0.0155,3.56669 -0.0365,7.13316 -0.0709,10.69972 -0.31157,33.19024 4.31591,62.87744 27.86988,88.09985 2.75564,2.75589 5.54302,5.47234 8.35644,8.16919 9.62279,9.22405 18.58547,18.85277 24.375,31 0.32742,0.6824 0.65485,1.36479 0.99219,2.06787 4.55713,9.78726 5.89557,18.61771 6.07031,29.36963 0.0226,0.96051 0.0451,1.92102 0.0684,2.91064 -0.0154,4.36094 -0.098,6.95911 -2.3457,10.77686 -2.16018,1.875 -2.16018,1.875 -5.16018,2.4375 -3.8039,-0.71323 -4.71332,-1.44214 -7,-4.5625 -0.69057,-3.14385 -0.82829,-6.29146 -1,-9.5 -1.37884,-17.69938 -7.74257,-29.76948 -20,-42.5 -0.91652,-0.95906 -0.91652,-0.95906 -1.85156,-1.9375 -2.93301,-2.99997 -5.97656,-5.81679 -9.14844,-8.5625 -1.33538,-1.16432 -2.66881,-2.33089 -4,-3.5 -0.82951,-0.72703 -0.82951,-0.72703 -1.67578,-1.46875 -7.66054,-7.1669 -14.10909,-16.45692 -19.32422,-25.53125 -0.6487,3.02024 -1.29404,6.04114 -1.9375,9.0625 -0.1824,0.84756 -0.3648,1.69512 -0.55273,2.56836 -5.80553,27.33877 -2.8515,49.23318 11.57617,72.79883 13.30495,22.07296 15.91983,46.08467 10.99463,71.27832 -2.26815,11.9513 -2.64641,25.16031 2.91943,36.29199 0.44948,6.18036 0.44948,6.18036 -1.0625,8.9375 -3.19338,1.75121 -5.3718,1.6158 -8.9375,1.0625 -6.50261,-5.44405 -8.74705,-14.84978 -10,-23 -0.12064,-2.61772 -0.18988,-5.1953 -0.1875,-7.8125 -6.4e-4,-0.75136 -0.001,-1.50273 -0.002,-2.27686 0.0454,-4.92292 0.47507,-9.65651 1.18946,-14.53564 3.18707,-23.08906 0.52496,-41.20027 -11,-61.375 -0.098,0.79922 -0.19594,1.59844 -0.29688,2.42187 -2.14211,15.7334 -7.52661,26.6059 -16.89062,39.26563 -6.93098,9.47323 -10.48274,18.98968 -11.25,30.8125 -0.26894,3.15112 -0.50883,4.41123 -2.1875,7.1875 -2.375,1.3125 -2.375,1.3125 -5.9375,1.3125 -3.4375,-1 -3.4375,-1 -5.1211,-2.57813 -1.81909,-3.34669 -1.84993,-6.45213 -1.8164,-10.17187 0.006,-0.74935 0.0129,-1.4987 0.0195,-2.27075 0.52196,-16.36476 8.51044,-29.38724 17.23046,-42.72925 9.71359,-15.13461 10.1457,-31.15352 8.75391,-48.59766 -0.64649,-8.7595 -0.74261,-17.49799 -0.75391,-26.27734 -0.002,-0.83384 -0.005,-1.66769 -0.007,-2.5268 -0.0119,-11.31952 0.42224,-22.27455 2.60083,-33.41851 0.78154,-3.50249 0.78154,-3.50249 0.65625,-7.42969 -1.16402,1.21623 -1.16402,1.21623 -2.35156,2.45703 -5.6425,5.81303 -11.33295,11.30366 -17.77344,16.23047 -15.91561,12.20915 -29.54736,26.03365 -33.875,46.3125 -0.49318,3.89376 -0.92815,7.77032 -1.27734,11.67969 -0.81585,3.74847 -1.66244,5.06541 -4.72266,7.32031 -3.5,0.5 -3.5,0.5 -7,0 -2.90717,-2.21863 -3.83982,-3.51945 -5,-7 -1.85466,-20.15157 7.14181,-38.30155 19.375,-53.625 5.30598,-6.32393 11.01013,-12.1582 17.25,-17.5625 1.46101,-1.26777 2.91881,-2.53921 4.375,-3.8125 0.54995,-0.48066 1.0999,-0.96132 1.66651,-1.45654 17.95539,-15.82636 30.27985,-34.09428 32.33342,-58.54346 0.18311,-4.08372 0.2538,-8.16676 0.31641,-12.25391 0.0312,-1.71219 0.0312,-1.71219 0.063,-3.45897 0.065,-3.61648 0.12412,-7.23304 0.18312,-10.84962 0.0432,-2.4642 0.0868,-4.92839 0.13086,-7.39258 0.10659,-6.0149 0.20846,-12.02987 0.30664,-18.04492 -1.10465,-0.30019 -2.20929,-0.60038 -3.34741,-0.90967 -8.20861,-2.45035 -14.2935,-8.8872 -18.65259,-16.09033 -5.12198,-9.9486 -6.62067,-19.95825 -4.38665,-31.04297 3.50054,-10.68665 9.91451,-18.98823 19.66016,-24.58594 13.28364,-6.67988 26.28042,-5.58981 39.08203,1.80469 z"
     fill="#0bade7"
     id="path5" />
  <path
     d="m 98.01624,145.46204 c 11.08119,3.73919 21.1523,9.31636 30.18213,16.73633 l 2.3164,1.82422 c 20.17541,16.73681 31.73414,43.52703 34.6836,69.17578 0.064,2.31171 0.0863,4.62503 0.0625,6.9375 l -0.0273,3.46484 -0.0352,2.59766 h 2 l -0.0977,-2.95313 c 0.0484,-27.55671 16.19039,-58.13162 34.51563,-77.55468 13.65748,-13.18227 33.45962,-23.34387 52.64453,-23.80469 l 3.09766,-0.11328 c 3.54241,0.53112 4.63074,1.67589 6.83984,4.42578 5.49083,10.98165 -0.29206,30.82698 -3.69678,41.71606 -5.69508,16.88699 -15.98784,31.56282 -28.30318,44.28394 l -2.27734,2.35547 c -8.20257,7.9434 -17.78452,13.80904 -27.29688,20.04492 -11.55146,7.61726 -20.12548,14.69009 -23.42578,28.59961 -0.4518,4.66767 -0.48806,9.3167 -0.51172,14.0039 l -0.0544,3.99706 c -0.0472,3.47686 -0.0772,6.95366 -0.10344,10.43074 -0.03,3.56 -0.0765,7.11979 -0.12146,10.67963 -0.0856,6.96276 -0.15316,13.9256 -0.20898,20.88867 l -3.00391,-0.4961 c -3.98964,-0.56994 -7.90231,-0.60208 -11.93359,-0.5664 l -2.07227,0.0137 c -1.66345,0.0116 -3.32686,0.0296 -4.99023,0.0488 l -0.0111,-2.24851 c -0.038,-7.03147 -0.0951,-14.06248 -0.17286,-21.09361 -0.0393,-3.61384 -0.0716,-7.22745 -0.0871,-10.84148 -0.0153,-3.49516 -0.0499,-6.98966 -0.0973,-10.48453 -0.0218,-1.96606 -0.0242,-3.93231 -0.026,-5.89849 -0.17582,-10.88299 -2.68934,-20.57649 -10.60564,-28.43338 -7.13443,-5.66636 -14.77268,-10.52656 -22.48438,-15.36328 -4.04752,-2.63341 -7.80342,-5.55294 -11.51562,-8.63672 l -2.39453,-1.98438 C 87.63776,218.94784 72.986446,193.02484 69.198366,165.19837 c -0.16493,-2.68215 -0.27469,-5.31768 -0.3125,-8 l -0.0879,-2.07813 c -0.06369,-5.13501 1.16417,-7.98316 4.4004,-11.92187 7.220644,-3.61032 17.502944,0.0375 24.817874,2.26367 z"
     fill="#fd4439"
     id="path6" />
  <path
     d="m 739.19837,348.19837 c 7.49525,6.01999 11.97732,12.93197 15,22 1.19337,13.60442 0.51315,25.19503 -8.30859,36.11719 -4.35332,4.84595 -8.0677,8.45409 -14.34253,10.47925 -0.8135,0.26451 -1.62699,0.52902 -2.46514,0.80155 -0.62163,0.19867 -1.24327,0.39733 -1.88374,0.60201 0.042,6.90147 0.11455,13.80215 0.20752,20.70312 0.0281,2.34303 0.0494,4.68615 0.0635,7.0293 0.0216,3.38654 0.0684,6.772 0.11963,10.15821 10e-4,1.03175 0.003,2.0635 0.004,3.12652 0.32121,16.2917 8.03693,28.00242 18.33734,39.94013 15.25119,17.76392 26.32613,38.14748 26.45583,62.16772 0.0142,1.19883 0.0284,2.39766 0.043,3.63281 -0.21829,3.0708 -0.55389,4.70935 -2.23047,7.24219 -2.67633,2.08159 -4.11754,1.99588 -7.5625,1.875 -3.43785,-0.875 -3.43785,-0.875 -5.0941,-2.60156 -1.54345,-2.61131 -1.90794,-4.52021 -2.28125,-7.52344 -2.80175,-18.57292 -8.06434,-33.6247 -21.54053,-47.2041 -2.73123,-2.77417 -5.37296,-5.63103 -8.02197,-8.4834 -0.50427,-0.53182 -1.00853,-1.06364 -1.52808,-1.61157 -2.77056,-2.96306 -5.02935,-5.88736 -6.97192,-9.45093 -13.40192,24.17293 -13.40192,24.17293 -13.25781,51.19141 3.14983,8.44936 8.75772,15.67402 13.95361,22.96338 15.60493,22.07826 23.07644,45.32997 18.72559,72.45214 -1.37407,7.16852 -3.05443,14.25635 -4.74659,21.35498 -1.12902,5.08307 -1.74023,10.17485 -2.25293,15.35059 -0.41635,2.65235 -0.98156,4.4331 -2.42187,6.6875 -3.09174,1.54587 -5.5943,1.2936 -9,1 -2.19922,-1.59473 -2.19922,-1.59473 -4,-4 -1.60306,-10.13272 0.79858,-20.39424 3,-30.25 4.63692,-22.0309 5.21538,-41.816 -7,-61.75 -3.8139,-5.79803 -7.87229,-11.42245 -12,-17 -0.0387,1.45406 -0.0387,1.45406 -0.0781,2.9375 -0.81098,21.6018 -6.93374,39.88902 -22.9219,55.0625 -3.72058,2.48039 -5.59797,2.46337 -10,2 -2.5,-1.5625 -2.5,-1.5625 -4,-4 0.23982,-5.60909 1.71208,-8.53067 5.25,-12.8125 9.8583,-12.54978 14.00054,-25.43219 13.77734,-41.3125 -0.0127,-1.77734 -0.025,-3.55469 -0.0371,-5.33203 -0.0246,-2.75968 -0.0524,-5.51923 -0.0862,-8.27881 -0.26408,-23.1103 3.1667,-43.22862 13.49829,-64.15479 0.43619,-0.8913 0.87238,-1.78261 1.32178,-2.70092 0.86114,-1.7507 1.73425,-3.49559 2.62207,-5.23291 7.95071,-16.12943 8.29632,-31.48288 8.40381,-49.11304 0.0282,-2.34052 0.0581,-4.68101 0.0898,-7.02148 0.0732,-5.68026 0.12524,-11.3604 0.16016,-17.04102 -0.94166,-0.30398 -1.88332,-0.60795 -2.85352,-0.92114 -9.9377,-3.40741 -16.74408,-10.6459 -21.28711,-19.89136 -4.0085,-10.20347 -4.82225,-22.24192 -0.92187,-32.625 5.81434,-11.79009 14.21567,-17.73818 26.06255,-22.5625 10.93682,-3.46433 22.64931,0.0654 32,6 z"
     fill="#0bade6"
     id="path7" />
  <path
     d="m 604.94837,347.94837 c 8.06229,5.74024 14.09859,13.48864 16.25,23.25 0.79841,13.20643 0.34874,24.53594 -8.37109,35.22266 -4.79821,5.23545 -9.97112,9.17544 -16.62891,11.77734 -0.66,0 -1.32,0 -2,0 0.0693,6.06525 0.15755,12.12984 0.26245,18.19458 0.0331,2.05884 0.0611,4.11778 0.084,6.17676 -0.0701,15.60516 -0.0701,15.60516 3.65355,30.62866 0.39059,1.00934 0.78118,2.01867 1.1836,3.05859 5.07643,9.631 12.88469,16.62756 21.0664,23.62891 12.30599,10.59895 21.36993,24.43651 23.12891,40.84766 0.29407,8.41413 0.29407,8.41413 -2.19531,12.30078 -2.1836,2.16406 -2.1836,2.16406 -5.6211,2.78906 -4.5542,-0.79898 -5.67409,-2.04932 -8.5625,-5.625 -1.1253,-2.85085 -1.77366,-5.76271 -2.4375,-8.75 -1.76532,-7.03664 -3.68972,-12.70511 -8.5625,-18.25 -0.52336,-0.59555 -1.04672,-1.19109 -1.58594,-1.80469 -5.79805,-6.1247 -12.66798,-11.17064 -19.41406,-16.19531 -0.0142,0.62004 -0.0284,1.24008 -0.043,1.87891 -0.55717,10.34524 -4.25345,19.52526 -7.80859,29.1289 -0.31437,0.84949 -0.62874,1.69899 -0.95264,2.57422 -0.61868,1.66345 -1.24251,3.32501 -1.87207,4.98438 -4.00011,10.64302 -5.23433,21.51347 -0.86279,32.30078 1.61205,3.28139 3.37766,6.43399 5.19629,9.604 11.02694,19.22698 13.29267,37.72977 7.60839,59.18115 -1.53439,4.05865 -3.2306,8.33016 -7.26559,10.34766 -2.875,0.375 -2.875,0.375 -6,0 -3.01455,-2.6179 -3.90775,-4.21587 -4.375,-8.1875 0.28275,-2.87466 0.7093,-5.28876 1.375,-8.0625 3.77953,-17.91171 0.009,-32.1561 -9.34497,-47.44897 -9.056,-14.99187 -10.38947,-29.98285 -6.31519,-46.81568 1.68589,-6.34701 3.69575,-12.60696 5.70313,-18.8584 2.38212,-7.47037 4.30421,-14.96233 5.95703,-22.62695 -0.64421,0.60844 -1.28842,1.21687 -1.95215,1.84375 -4.4474,4.17333 -8.91284,7.85707 -14.04785,11.15625 -10.11199,6.58123 -16.96974,13.55618 -23,24 -4.21291,7.02618 -4.21291,7.02618 -8,8 -3.68061,-0.12914 -6.07168,-0.22141 -8.9375,-2.625 -2.52954,-5.65426 -1.02202,-10.0605 0.9375,-15.6875 2.68054,-6.57334 6.21712,-11.49215 11,-16.6875 0.60973,-0.70125 1.21945,-1.4025 1.84766,-2.125 5.74944,-6.21808 12.5455,-11.01908 19.41333,-15.91504 4.28885,-3.06973 8.15022,-6.09143 11.73901,-9.95996 0.70125,-0.72188 1.4025,-1.44375 2.125,-2.1875 5.07048,-7.60572 5.33447,-16.28537 5.38672,-25.16406 0.018,-1.14005 0.0359,-2.28009 0.0544,-3.45468 0.0538,-3.60622 0.0879,-7.21231 0.12138,-10.81876 0.0332,-2.45965 0.0677,-4.91929 0.10352,-7.37891 0.0846,-5.99858 0.15306,-11.99718 0.20898,-17.99609 -0.77489,-0.13721 -1.54977,-0.27441 -2.34814,-0.41577 -9.0964,-2.00402 -16.11603,-10.49588 -21.19092,-17.79907 -5.17171,-9.1444 -5.54638,-21.90682 -2.88086,-31.97657 4.33325,-12.06698 12.37009,-19.30045 23.68554,-24.67968 11.90329,-4.91436 23.87227,-1.95087 34.48438,4.62109 z"
     fill="#0bade6"
     id="path8" />
  <path
     d="m 781.19837,204.19837 c 2.51033,2.14981 3.8107,3.904 4.37988,7.19946 0.16301,2.69626 0.17308,5.34983 0.12012,8.05054 -0.0114,0.97566 -0.0227,1.95132 -0.0344,2.95654 -0.64696,24.5203 -11.15733,44.95075 -28.64917,61.91065 -4.80427,4.40177 -9.92218,8.26175 -15.23829,12.02343 -7.03238,5.07183 -10.6641,9.5823 -13.57814,17.85938 -0.78037,4.93387 -0.88541,9.76139 -0.875,14.75 -0.0206,1.28133 -0.0412,2.56266 -0.0625,3.88281 -0.0466,3.12306 -0.067,6.24386 -0.0625,9.36719 -1.64549,-0.0174 -1.64549,-0.0174 -3.32422,-0.0352 -1.45442,-0.009 -2.90885,-0.0185 -4.36328,-0.0273 -0.72123,-0.008 -1.44246,-0.0168 -2.18555,-0.0254 -3.8621,-0.0176 -7.36337,0.26203 -11.12695,1.0879 -0.009,-0.82613 -0.0187,-1.65226 -0.0283,-2.50342 -0.0444,-3.11296 -0.10624,-6.22499 -0.1792,-9.3374 -0.0416,-1.99033 -0.0637,-3.98103 -0.0854,-5.97168 -0.2278,-9.02099 -0.99312,-16.74384 -6.93359,-23.85156 -0.79149,-0.64711 -1.58297,-1.29422 -2.39844,-1.96094 -0.87527,-0.73219 -1.75055,-1.46438 -2.65234,-2.21875 -0.89855,-0.71156 -1.79703,-1.42313 -2.72273,-2.15625 -0.86754,-0.69094 -1.73508,-1.38187 -2.62891,-2.09375 -1.68614,-1.33862 -3.37233,-2.67716 -5.05859,-4.01563 -11.54708,-9.44051 -21.35162,-23.24282 -24.06641,-38.16015 -0.36361,-4.03437 -0.49559,-8.05605 -0.55859,-12.10547 -0.0179,-0.79817 -0.0358,-1.59634 -0.0542,-2.4187 0.009,-5.7637 0.009,-5.7637 1.75635,-7.92383 2.75592,-2.19479 5.46833,-1.74553 8.86426,-1.62231 13.05019,1.61503 22.97475,11.39387 30.74609,21.33984 6.94174,9.01569 9.68409,20.28318 13,31 1.78513,-1.78513 1.47469,-4.57727 1.75,-7 2.83915,-20.26497 10.28444,-40.39148 26.93262,-53.30518 11.13608,-8.03926 25.10981,-16.35237 39.31738,-14.69482 z"
     fill="#fd4439"
     id="path9" />
  <path
     d="m 531.19837,204.19837 c 19.40702,5.07255 34.17888,16.16333 44.36328,33.29297 6.91854,12.78752 9.44977,26.39278 10.63672,40.70703 0.19594,-0.76441 0.39188,-1.52883 0.59375,-2.31641 5.35759,-19.19032 16.06908,-35.69093 33.57812,-45.95703 5.45444,-2.72721 11.70551,-4.49791 17.82813,-3.72656 2.28906,1.48047 2.28906,1.48047 4,4 0.43736,2.93481 0.61914,5.38359 0.5625,8.3125 -0.0164,1.19726 -0.0164,1.19726 -0.0332,2.4187 -0.57868,16.17241 -8.71136,32.25856 -20.5293,43.2688 -4.01812,3.35187 -8.18589,6.51671 -12.33008,9.70996 -2.29442,1.77247 -4.56503,3.56172 -6.79492,5.41504 -0.66258,0.53883 -1.32516,1.07766 -2.00781,1.63281 -6.73921,8.09269 -6.51892,17.29389 -6.61719,27.30469 -0.0282,1.45251 -0.0581,2.90499 -0.0898,4.35742 -0.0733,3.52654 -0.1232,7.05295 -0.16016,10.58008 -0.74274,-0.16299 -1.48548,-0.32597 -2.25073,-0.4939 -3.6898,-0.67924 -7.32598,-0.612 -11.06177,-0.5686 -0.74057,0.005 -1.48113,0.009 -2.24414,0.0137 -1.81449,0.0117 -3.62893,0.0296 -5.44336,0.0488 -0.0146,-0.80631 -0.0292,-1.61262 -0.0442,-2.44336 -0.0749,-3.68601 -0.17142,-7.37115 -0.26831,-11.05664 -0.0338,-1.90266 -0.0338,-1.90266 -0.0684,-3.84375 -0.30178,-10.53486 -1.73904,-17.40388 -9.05664,-25.24609 -2.98351,-2.80614 -6.12694,-5.29557 -9.375,-7.78516 -20.6752,-15.86496 -34.35718,-37.18761 -37.875,-63.38281 -0.72918,-7.56535 -1.26029,-15.1054 1.68751,-22.24219 4.36538,-2.91026 7.87226,-2.64013 13,-2 z"
     fill="#fd4439"
     id="path10" />
  <path
     d="m 428.55384,347.37415 c 7.95684,5.48869 13.25479,13.54778 16.25391,22.67969 1.96923,10.8111 0.59183,21.82753 -4.89454,31.38281 -5.76379,8.26839 -14.11996,15.92204 -24.10156,18.33984 -10.35005,1.67086 -20.11675,0.3637 -29.15625,-5.12109 -8.76874,-6.41866 -15.3978,-15.63634 -17.45703,-26.45703 -0.98061,-13.51959 1.29403,-23.594 9.66406,-34.48438 13.58635,-14.63145 32.96237,-16.0029 49.69141,-6.33984 z"
     fill="#5bcc41"
     id="path11" />
  <path
     d="m 191.65931,350.17493 c 6.06223,5.69971 11.96028,13.4253 12.71606,22.04126 0.53517,20.07421 0.53517,20.07421 -4.177,27.98218 -0.59812,1.05187 -1.19625,2.10375 -1.8125,3.1875 -6.68779,8.59858 -15.05037,15.21895 -26.1875,16.8125 -12.33026,0.9849 -21.52605,-2.05462 -31,-10 -7.24966,-6.80609 -11.64009,-14.99363 -12.23828,-24.97657 -0.32441,-13.51343 1.6819,-22.88315 11.23828,-33.02343 15.08725,-13.5755 35.31599,-14.99066 51.46094,-2.02344 z"
     fill="#5bcd41"
     id="path12" />
  <path
     d="m 739.19837,348.19837 c 7.49525,6.01999 11.97732,12.93197 15,22 1.19307,13.60104 0.52146,25.21575 -8.32031,36.125 -7.03975,7.85832 -14.76351,13.06217 -25.46875,14.32031 -7.65516,0.23012 -13.66214,-0.41624 -20.21094,-4.44531 -0.76957,-0.44731 -1.53914,-0.89461 -2.33203,-1.35547 -10.32058,-6.38404 -15.81103,-14.93713 -18.66797,-26.64453 -1.23186,-13.21334 0.37899,-23.67823 8.9375,-34.3125 14.05701,-14.6723 34.22381,-16.37459 51.0625,-5.6875 z"
     fill="#5bcc41"
     id="path13" />
  <path
     d="m 604.94837,347.94837 c 8.06229,5.74024 14.09859,13.48864 16.25,23.25 0.79774,13.19538 0.36429,24.56467 -8.38281,35.22656 -7.2616,7.9632 -16.2737,12.98068 -27.125,14.01172 -11.47544,0.32542 -20.11037,-3.51257 -28.49219,-11.23828 -7.54982,-7.13707 -11.15014,-15.21928 -11.6958,-25.56128 -0.25453,-12.92032 2.61517,-22.14121 11.3833,-31.93872 14.21332,-12.93384 32.09082,-13.64109 48.0625,-3.75 z"
     fill="#5bcd41"
     id="path14" />
  <path
     d="m 311.19837,189.19837 c 0.66,0 1.32,0 2,0 1.58594,2.04687 1.58594,2.04687 3.375,4.75 1.82131,2.744 3.50697,5.13322 5.85156,7.45312 1.77344,1.79688 1.77344,1.79688 1.77344,3.79688 0.5543,0.23332 1.10859,0.46664 1.67969,0.70703 3.90131,2.17396 6.86279,5.42474 10.07812,8.49219 7.25738,6.53805 15.8646,11.51764 24.11719,16.67578 32.53171,20.54849 32.53171,20.54849 36.97656,36.10547 1.4248,7.19046 1.4248,7.19046 0.14844,11.01953 -0.66,0 -1.32,0 -2,0 -0.45439,-0.9784 -0.45439,-0.9784 -0.91797,-1.97656 -0.41894,-0.87399 -0.83789,-1.74797 -1.26953,-2.64844 -0.40605,-0.85852 -0.81211,-1.71703 -1.23047,-2.60156 -3.42939,-6.01203 -7.47521,-9.77463 -13.26953,-13.46094 -0.64429,-0.4208 -1.28858,-0.8416 -1.95239,-1.27515 -5.1142,-3.31292 -10.32998,-6.45363 -15.54761,-9.59985 -18.47998,-11.17457 -33.87055,-24.58255 -45.75,-42.75 -0.37786,-0.5746 -0.75571,-1.1492 -1.14502,-1.74121 -2.2431,-3.53204 -3.75704,-6.93033 -4.91748,-10.94629 0.66,-0.66 1.32,-1.32 2,-2 z"
     fill="#f03639"
     id="path15" />
  <path
     d="m 498.19837,187.19837 c 1.86878,4.9129 -0.47791,8.74565 -2.35547,13.35937 -4.79925,10.62447 -10.81742,19.94835 -18.64453,28.64063 -0.67418,0.75668 -1.34836,1.51336 -2.04297,2.29297 -9.16933,9.71983 -20.47301,16.85421 -31.76953,23.83203 -10.94608,6.80717 -19.85771,12.76444 -23.71349,25.63007 -0.58478,2.76953 -0.6377,5.37556 -0.67933,8.20684 -0.02,1.20095 -0.0399,2.40189 -0.0604,3.63923 -0.0167,1.29178 -0.0334,2.58356 -0.0506,3.91449 -0.0206,1.3395 -0.0416,2.679 -0.063,4.01849 -0.0551,3.51803 -0.10455,7.03613 -0.15285,10.55426 -0.0503,3.59299 -0.10595,7.18589 -0.16113,10.77881 -0.10741,7.0442 -0.20889,14.08847 -0.30664,21.13281 -0.66,-0.33 -1.32,-0.66 -2,-1 -0.0257,-7.62735 -0.043,-15.25469 -0.0549,-22.88208 -0.005,-2.58627 -0.0118,-5.17253 -0.0205,-7.75879 -0.0815,-24.77773 -0.0815,-24.77773 0.39575,-36.30054 0.0228,-0.74264 0.0455,-1.48529 0.069,-2.25044 0.49204,-9.53629 5.7672,-15.28007 12.42323,-21.55815 6.4847,-5.50514 13.43566,-10.16353 20.625,-14.6875 8.88825,-5.61297 17.12785,-11.8961 25.15235,-18.67969 2.09421,-1.63611 3.98974,-2.81587 6.41001,-3.88281 0,0.66 0,1.32 0,2 0.66,0 1.32,0 2,0 0,-0.66 0,-1.32 0,-2 0.99,0 1.98,0 3,0 1.01304,-1.72156 2.00995,-3.45262 3,-5.1875 0.55687,-0.96293 1.11375,-1.92586 1.6875,-2.91797 1.50097,-2.78048 1.50097,-2.78048 1.3125,-5.63281 0,-0.74637 0,-1.49274 0,-2.26172 0.99,-0.66 1.98,-1.32 3,-2 1.00806,-2.17897 1.00806,-2.17897 1.6875,-4.625 0.25137,-0.81727 0.50273,-1.63453 0.76172,-2.47656 0.18176,-0.62649 0.36351,-1.25297 0.55078,-1.89844 z"
     fill="#f03438"
     id="path16" />
  <path
     d="m 76.19837,189.19837 c 0.99,0.495 0.99,0.495 2,1 0.33,0.99 0.66,1.98 1,3 0.99,0.33 1.98,0.66 3,1 1.28906,1.49609 1.28906,1.49609 2.625,3.4375 3.75874,5.20083 8.0068,9.86989 12.375,14.5625 0.59168,0.65742 1.18336,1.31484 1.79297,1.99219 8.83847,9.40428 20.03443,16.58153 30.64453,23.82031 9.18277,6.27587 17.15762,11.91203 23.5625,21.1875 0.4357,0.58652 0.87141,1.17305 1.32031,1.77734 3.22343,4.79006 3.48201,9.65306 2.67969,15.22266 -1.02344,2.30078 -1.02344,2.30078 -2,4 -0.21914,-0.55688 -0.43828,-1.11375 -0.66406,-1.6875 -6.34474,-15.26863 -18.30279,-22.19768 -31.82032,-30.67578 -4.04752,-2.63341 -7.80342,-5.55293 -11.51562,-8.63672 -0.79019,-0.65484 -1.58039,-1.30969 -2.39453,-1.98438 -14.36642,-12.3981 -25.91619,-28.16633 -32.60547,-46.01562 0,-0.66 0,-1.32 0,-2 z"
     fill="#f13336"
     id="path17" />
  <path
     d="m 258.19837,188.19837 c 1.42768,4.28303 -0.45606,6.95019 -2.3125,10.8125 -0.36102,0.75612 -0.72204,1.51223 -1.09399,2.29126 -5.71895,11.58503 -13.55832,21.69231 -22.59351,30.89624 -0.74895,0.77344 -1.49789,1.54687 -2.26953,2.34375 -8.19892,7.9536 -17.7891,13.81864 -27.30469,20.05664 -11.08908,7.31237 -18.60839,14.02086 -23.42578,26.59961 -3.0589,-4.58836 -1.97219,-8.73278 -1,-14 4.04945,-13.41687 18.15607,-23.34384 29.44189,-30.45776 15.76209,-9.94786 30.12567,-20.70884 41.55811,-35.54224 0.66,-0.66 1.32,-1.32 2,-2 0.99,0 1.98,0 3,0 0.20496,-0.62648 0.40992,-1.25297 0.62109,-1.89844 0.26942,-0.81726 0.53883,-1.63453 0.81641,-2.47656 0.26684,-0.81211 0.53367,-1.62422 0.80859,-2.46094 0.75391,-2.16406 0.75391,-2.16406 1.75391,-4.16406 z"
     fill="#f03336"
     id="path18" />
  <path
     d="m 444.19837,375.19837 c 0.33,0 0.66,0 1,0 0.71136,11.14468 -0.94976,21.31268 -8.23828,30.125 -7.63953,8.13076 -15.08768,14.10705 -26.45313,15.11328 -10.84981,0.28047 -19.98641,-2.22124 -28.34375,-9.32422 -6.89282,-6.71467 -12.71818,-15.84961 -13.0625,-25.71094 0.0116,-0.97453 0.0232,-1.94906 0.0352,-2.95312 0.009,-0.98484 0.0181,-1.96969 0.0273,-2.98438 0.0116,-0.74765 0.0232,-1.49531 0.0352,-2.26562 2.2295,2.2295 2.79865,3.81449 3.875,6.75 3.91476,9.95835 9.96077,16.53922 19.625,21.1875 9.90816,3.78289 21.28741,3.58729 31.04297,-0.625 8.55699,-4.57101 14.24099,-10.52117 18.45699,-19.3125 0.99117,-3.31863 1.63416,-6.55809 2,-10 z"
     fill="#12b154"
     id="path19" />
  <path
     d="m 203.19837,373.19837 c 0.33,0 0.66,0 1,0 0.61286,14.6746 -0.76047,25.11998 -11,36.5 -7.08137,6.89744 -16.39539,10.57643 -26.1875,10.75 -11.31384,-0.16683 -19.66366,-4.47738 -27.85547,-12.16797 -7.18091,-7.67087 -10.11566,-15.94958 -10.01953,-26.33203 0.009,-1.26328 0.018,-2.52656 0.0273,-3.82813 0.0116,-0.96421 0.0232,-1.92843 0.0352,-2.92187 0.33,0 0.66,0 1,0 0.33,3.3 0.66,6.6 1,10 0.66,0 1.32,0 2,0 0.55687,1.19625 1.11375,2.3925 1.6875,3.625 4.57185,8.9855 10.82373,13.71804 20.11719,17.52344 8.96908,2.39029 20.14377,1.97949 28.69531,-1.6836 8.22686,-4.82042 15.74572,-12.14266 18.5,-21.46484 0.4459,-3.32627 0.75307,-6.6535 1,-10 z"
     fill="#12b155"
     id="path20" />
  <path
     d="m 753.19837,374.19837 c 0.33,0 0.66,0 1,0 0.60497,13.54464 -0.59452,23.50085 -10,34 -6.5251,7.02253 -14.19385,11.31763 -23.78906,12.44531 -7.65516,0.23012 -13.66214,-0.41624 -20.21094,-4.44531 -1.15436,-0.67096 -1.15436,-0.67096 -2.33203,-1.35547 -9.25144,-5.7227 -14.00801,-12.86164 -17.91797,-22.83203 -1.10163,-5.59995 -0.90396,-11.12447 -0.75,-16.8125 0.33,0 0.66,0 1,0 0.21914,0.83402 0.43828,1.66805 0.66406,2.52734 3.77609,13.40052 9.01903,20.57766 21.05469,27.42188 8.29094,3.81894 20.64882,3.32472 29.21875,0.48828 8.63208,-3.69946 14.82695,-9.05577 19.0625,-17.4375 0.4125,-0.80438 0.825,-1.60875 1.25,-2.4375 1.11041,-3.79391 1.42464,-7.63243 1.75,-11.5625 z"
     fill="#12b155"
     id="path21" />
  <path
     d="m 546.19837,373.19837 c 0.33,0 0.66,0 1,0 0.14695,1.17756 0.14695,1.17756 0.29687,2.37891 0.92653,6.50966 1.88131,11.24988 5.70313,16.62109 0.43699,0.64453 0.87398,1.28906 1.32422,1.95312 5.34405,7.05362 13.22701,12.05072 22.01172,13.40772 12.35432,1.07804 22.13969,-0.40563 31.91406,-8.36084 7.11408,-6.80039 11.37046,-15.13197 11.75,-25 0.33,0 0.66,0 1,0 0.59747,12.29781 -0.25982,22.3254 -8.38281,32.22656 -7.2616,7.96321 -16.2737,12.98068 -27.125,14.01172 -11.47544,0.32542 -20.11037,-3.51257 -28.49219,-11.23828 -6.51901,-6.16262 -10.94494,-13.61767 -11.30859,-22.71094 -0.0532,-4.4384 0.0891,-8.8564 0.30859,-13.28906 z"
     fill="#11b153"
     id="path22" />
  <path
     d="m 521.19837,244.19837 c 1.32,0.33 2.64,0.66 4,1 -0.33,1.98 -0.66,3.96 -1,6 0.75926,0.0761 1.51852,0.15211 2.30078,0.23047 3.40889,0.97185 4.06648,2.10035 5.88672,5.08203 0.48856,0.77988 0.97711,1.55977 1.48047,2.36328 1.19061,2.07746 2.29118,4.16853 3.33203,6.32422 0.66,0 1.32,0 2,0 0.61875,0.80437 1.2375,1.60875 1.875,2.4375 3.46704,4.41547 8.13964,7.39195 12.67578,10.60937 1.21236,0.9668 1.21236,0.9668 2.44922,1.95313 0,0.66 0,1.32 0,2 0.55687,0.22687 1.11375,0.45375 1.6875,0.6875 3.00765,1.70704 4.94549,3.78035 7.3125,6.3125 0.87592,0.86818 0.87592,0.86818 1.76953,1.75391 0.91846,0.95712 0.91846,0.95712 1.85547,1.93359 0.56977,0.58137 1.13953,1.16273 1.72656,1.76172 5.81224,8.99382 5.01155,19.39976 4.83594,29.67578 -0.0151,1.54426 -0.0288,3.08853 -0.041,4.63281 -0.0302,3.74805 -0.0889,7.49407 -0.14648,11.24219 4.95,0 9.9,0 15,0 0,0.33 0,0.66 0,1 -8.415,0.495 -8.415,0.495 -17,1 -0.0374,-1.92844 -0.0748,-3.85688 -0.11328,-5.84375 -0.0657,-2.5521 -0.13213,-5.10419 -0.19922,-7.65625 -0.0338,-1.90266 -0.0338,-1.90266 -0.0684,-3.84375 -0.30178,-10.53486 -1.73904,-17.40388 -9.05664,-25.24609 -2.98351,-2.80614 -6.12694,-5.29557 -9.375,-7.78516 -14.87443,-11.41379 -28.8282,-26.37895 -33,-45.3125 -0.0928,-1.14469 -0.0928,-1.14469 -0.1875,-2.3125 z"
     fill="#f03336"
     id="path23" />
  <path
     d="m 782.19837,237.19837 c 2.28445,6.33076 -1.81312,13.20903 -4.28906,19.03125 -8.27999,17.57763 -21.3942,29.3993 -36.81739,40.55591 -0.62487,0.46624 -1.24974,0.93247 -1.89355,1.41284 -0.83354,0.60578 -1.66708,1.21156 -2.52588,1.83569 -5.23252,4.5773 -7.96837,10.96673 -9.04346,17.76392 -0.2373,3.72797 -0.31346,7.41515 -0.30566,11.15039 -0.0206,1.28133 -0.0412,2.56266 -0.0625,3.88281 -0.0466,3.12306 -0.067,6.24386 -0.0625,9.36719 -0.33,0 -0.66,0 -1,0 -0.0998,-4.10751 -0.17193,-8.21454 -0.21973,-12.323 -0.0199,-1.39368 -0.0471,-2.78728 -0.082,-4.18066 -0.18433,-7.55474 -0.18225,-13.88202 3.50562,-20.66431 1.06876,-1.99934 1.06876,-1.99934 0.23755,-5.02344 -0.44144,-2.80859 -0.44144,-2.80859 1.5859,-5.77343 0.95121,-1.009 1.92252,-1.9993 2.91016,-2.97266 0.50346,-0.5207 1.00692,-1.0414 1.52563,-1.57788 3.97094,-4.05799 8.10048,-7.93748 12.53687,-11.48462 1.03834,-0.83338 1.03834,-0.83338 2.09766,-1.68359 1.90234,-1.31641 1.90234,-1.31641 3.90234,-1.31641 0,-0.66 0,-1.32 0,-2 1.43359,-1.375 1.43359,-1.375 3.4375,-3 9.48495,-8.14669 15.77799,-17.06144 21.5625,-28 0.66,0 1.32,0 2,0 0.33,-1.65 0.66,-3.3 1,-5 z"
     fill="#f03437"
     id="path24" />
  <path
     d="m 660.19837,247.19837 c 2,2 2,2 2.125,5.125 -0.0412,0.94875 -0.0825,1.8975 -0.125,2.875 0.99,0 1.98,0 3,0 0.43313,1.0725 0.86625,2.145 1.3125,3.25 5.29749,10.43001 14.8766,18.06543 23.94043,25.12183 4.58532,3.58019 8.92469,7.22577 12.74707,11.62817 0.50717,0.57976 1.01433,1.15951 1.53687,1.75684 5.47453,7.76132 3.99645,17.76693 3.77563,26.80566 -0.0251,1.78968 -0.0479,3.5794 -0.0684,5.36914 -0.0547,4.35697 -0.14083,8.71228 -0.24414,13.06836 -0.99,0.495 -0.99,0.495 -2,1 -0.009,-0.82613 -0.0187,-1.65226 -0.0283,-2.50342 -0.0444,-3.11296 -0.10624,-6.22499 -0.1792,-9.3374 -0.0416,-1.99033 -0.0637,-3.98104 -0.0854,-5.97168 -0.2278,-9.02099 -0.99312,-16.74384 -6.93359,-23.85156 -0.79149,-0.64711 -1.58297,-1.29422 -2.39844,-1.96094 -0.87527,-0.73219 -1.75055,-1.46438 -2.65234,-2.21875 -0.89851,-0.71156 -1.79699,-1.42313 -2.72269,-2.15625 -0.86754,-0.69094 -1.73508,-1.38187 -2.62891,-2.09375 -1.68614,-1.33862 -3.37233,-2.67716 -5.05859,-4.01563 -11.27471,-9.21783 -21.67354,-22.8369 -23.1875,-37.70312 -0.0665,-1.39487 -0.1187,-2.79106 -0.125,-4.1875 z"
     fill="#f0363a"
     id="path25" />
  <path
     d="m 634.19837,259.19837 c 0.99,0.33 1.98,0.66 3,1 -2.08308,14.82193 -16.29779,25.20918 -27.33008,33.70996 -2.29442,1.77247 -4.56503,3.56172 -6.79492,5.41504 -0.66258,0.53883 -1.32516,1.07766 -2.00781,1.63281 -6.73921,8.09269 -6.51892,17.29389 -6.61719,27.30469 -0.0282,1.45251 -0.0581,2.90498 -0.0898,4.35742 -0.0733,3.52654 -0.1232,7.05295 -0.16016,10.58008 -0.66,0 -1.32,0 -2,0 -0.0748,-4.94381 -0.12891,-9.88729 -0.1648,-14.83154 -0.015,-1.6778 -0.0354,-3.35555 -0.0615,-5.03321 -0.18724,-12.32855 -0.24901,-22.99964 8.01539,-32.92041 3.40609,-3.41211 7.22904,-6.14543 11.14062,-8.94922 5.78667,-4.2701 11.07546,-9.15859 16.07025,-14.32812 2,-1.9375 2,-1.9375 4,-1.9375 0,0.66 0,1.32 0,2 0.66,0 1.32,0 2,0 -0.0206,-1.13437 -0.0412,-2.26875 -0.0625,-3.4375 0.0625,-3.5625 0.0625,-3.5625 1.0625,-4.5625 z"
     fill="#f33132"
     id="path26" />
  <path
     d="m 179.19837,354.19837 c 4.98064,2.44149 8.57921,6.01296 11,11 0.4375,3.8125 0.4375,3.8125 0,7 -2.51843,2.51843 -3.62212,2.41126 -7.125,2.5625 -5.64994,-0.0817 -8.33901,-1.77072 -12.31641,-5.64063 -2.73743,-3.37547 -3.59959,-5.12913 -3.37109,-9.54687 1.49746,-6.22024 6.23678,-6.21242 11.8125,-5.375 z"
     fill="#89d94a"
     id="path27" />
  <path
     d="m 593.84681,353.7804 c 5.00105,0.88889 8.11977,3.94776 11.28906,7.73047 1.50577,3.8087 1.39768,6.59839 1.0625,10.6875 -2.46996,2.46996 -3.33897,2.32332 -6.75,2.375 -4.87219,-0.11935 -7.58899,-0.9755 -11.25,-4.375 -2.4845,-3.20656 -3.88957,-6.17972 -4.4375,-10.25 0.95175,-5.98239 4.75429,-6.35032 10.08594,-6.16797 z"
     fill="#8ad94a"
     id="path28" />
  <path
     d="m 417.77649,353.64368 c 4.48704,1.02768 7.5089,4.1178 10.42188,7.55469 2.24026,3.72652 2.32152,6.65936 2,11 -2.44952,2.44951 -3.30425,2.34942 -6.6875,2.4375 -5.40083,-0.10927 -8.5393,-1.63285 -12.3125,-5.4375 -2.49011,-3.05239 -2.96663,-4.67739 -3.375,-8.625 0.375,-3.375 0.375,-3.375 1.63671,-5.04688 2.72736,-2.08382 4.96916,-1.98126 8.31641,-1.88281 z"
     fill="#8ad94a"
     id="path29" />
  <path
     d="m 727.96399,353.56946 c 4.66949,1.31431 8.02821,5.1351 11.23438,8.62891 1.11445,2.22891 1.1648,3.53055 1.1875,6 0.0142,0.70125 0.0284,1.4025 0.043,2.125 -0.2305,1.875 -0.2305,1.875 -2.2305,3.875 -4.58384,0.78842 -8.1705,0.42257 -12.3125,-1.6875 -4.16389,-3.58288 -6.72437,-6.08602 -7.4375,-11.625 -0.0825,-1.21688 -0.165,-2.43375 -0.25,-3.6875 2.8912,-2.89121 5.67003,-3.74439 9.76562,-3.62891 z"
     fill="#89d84a"
     id="path30" />
  <path
     d="m 706.19837,419.19837 c 6.93,0 13.86,0 21,0 0,3.63 0,7.26 0,11 -3.32934,1.10978 -5.87228,1.13301 -9.375,1.125 -1.68223,0.004 -1.68223,0.004 -3.39844,0.008 -3.22656,-0.133 -3.22656,-0.133 -8.22656,-1.133 0,-3.63 0,-7.26 0,-11 z"
     fill="#0082d5"
     id="path31" />
  <path
     d="m 156.19837,419.19837 c 6.93,0 13.86,0 21,0 0,3.63 0,7.26 0,11 -3.75852,0.7517 -6.73904,1.16109 -10.5,1.1875 -1.37672,0.0213 -1.37672,0.0213 -2.78125,0.043 -2.91428,-0.24708 -5.07234,-1.01756 -7.71875,-2.2305 0,-3.3 0,-6.6 0,-10 z"
     fill="#0084d7"
     id="path32" />
  <path
     d="m 594.19837,418.19837 c 0,3.96 0,7.92 0,12 -2.94361,1.47181 -5.60048,1.13181 -8.875,1.125 -1.23492,0.003 -2.46984,0.005 -3.74219,0.008 -3.38281,-0.133 -3.38281,-0.133 -7.38281,-1.133 0,-3.63 0,-7.26 0,-11 0.95262,0.0116 1.90523,0.0232 2.88672,0.0352 1.25426,0.009 2.50851,0.018 3.80078,0.0273 1.24137,0.0116 2.48273,0.0232 3.76172,0.0352 3.23067,-0.0889 6.38923,-1.0977 9.55078,-1.0977 z"
     fill="#017fd6"
     id="path33" />
  <path
     d="m 397.19837,419.19837 c 6.6,0 13.2,0 20,0 0,3.63 0,7.26 0,11 -3.57919,0.8948 -6.34695,1.16467 -10,1.1875 -1.03125,0.0142 -2.0625,0.0284 -3.125,0.043 -2.875,-0.2305 -2.875,-0.2305 -6.875,-2.2305 0,-3.3 0,-6.6 0,-10 z"
     fill="#007ed3"
     id="path34" />
  <path
     d="m 498.19837,187.19837 c 1.86878,4.9129 -0.47791,8.74565 -2.35547,13.35937 -6.20291,13.73187 -14.64793,25.28049 -25.64453,35.64063 -0.66,-0.33 -1.32,-0.66 -2,-1 2.31,-2.31 4.62,-4.62 7,-7 -0.66,-0.33 -1.32,-0.66 -2,-1 1.68674,-4.49797 3.81674,-8.72886 6,-13 0.66,0 1.32,0 2,0 0,0.66 0,1.32 0,2 0.66,0 1.32,0 2,0 0,-0.66 0,-1.32 0,-2 0.99,0 1.98,0 3,0 1.01304,-1.72156 2.00995,-3.45262 3,-5.1875 0.55687,-0.96293 1.11375,-1.92586 1.6875,-2.91797 1.50097,-2.78048 1.50097,-2.78048 1.3125,-5.63281 0,-0.74637 0,-1.49274 0,-2.26172 0.99,-0.66 1.98,-1.32 3,-2 1.00806,-2.17897 1.00806,-2.17897 1.6875,-4.625 0.25137,-0.81727 0.50273,-1.63453 0.76172,-2.47656 0.18176,-0.62649 0.36351,-1.25297 0.55078,-1.89844 z"
     fill="#f32d2f"
     id="path35" />
  <path
     d="m 422.19837,270.19837 c 0.33,0.66 0.66,1.32 1,2 -0.57566,1.60103 -1.22214,3.17678 -1.89941,4.73755 -2.58569,6.84655 -2.70287,13.20639 -2.70997,20.46167 -0.0165,1.3162 -0.0331,2.63239 -0.0501,3.98848 -0.0433,3.46045 -0.0636,6.92066 -0.0787,10.38133 -0.0197,3.5468 -0.0617,7.09334 -0.10162,10.63995 -0.0749,6.93024 -0.12546,13.86047 -0.1602,20.79102 -0.66,-0.33 -1.32,-0.66 -2,-1 -0.0255,-7.75553 -0.0429,-15.51104 -0.0549,-23.2666 -0.005,-2.63412 -0.0118,-5.26824 -0.0205,-7.90235 -0.0122,-3.80306 -0.0178,-7.60609 -0.0222,-11.40918 -0.005,-1.16299 -0.0103,-2.32599 -0.0156,-3.52423 -4.9e-4,-7.34895 0.38204,-14.5851 1.1133,-21.89764 0.66,0 1.32,0 2,0 0,-0.99 0,-1.98 0,-3 0.99,-0.33 1.98,-0.66 3,-1 z"
     fill="#fe2d24"
     id="path36" />
  <path
     d="m 677.19837,281.19837 c 0.86625,0.76312 1.7325,1.52625 2.625,2.3125 4.40452,3.78698 8.98863,7.3409 13.57471,10.90356 2.37223,1.84799 4.67159,3.65524 6.80029,5.78394 0.66,-0.99 1.32,-1.98 2,-3 3,1 3,1 4.66919,3.50635 1.64375,4.31517 1.71217,7.82409 1.62378,12.39209 -0.004,0.83496 -0.008,1.66992 -0.0129,2.53018 -0.0167,2.64913 -0.0543,5.29748 -0.0926,7.94638 -0.0151,1.80337 -0.0287,3.60676 -0.041,5.41016 -0.033,4.40524 -0.0847,8.80991 -0.14648,13.21484 -0.99,0.495 -0.99,0.495 -2,1 -0.009,-0.82613 -0.0187,-1.65226 -0.0283,-2.50342 -0.0444,-3.11296 -0.10624,-6.22499 -0.1792,-9.3374 -0.0416,-1.99033 -0.0637,-3.98103 -0.0854,-5.97168 -0.2278,-9.02099 -0.99312,-16.74384 -6.93359,-23.85156 -0.79149,-0.64711 -1.58297,-1.29422 -2.39844,-1.96094 -0.87141,-0.72832 -1.74281,-1.45664 -2.64063,-2.20703 -0.9024,-0.71543 -1.80474,-1.43086 -2.73443,-2.16797 -0.90234,-0.72574 -1.80469,-1.45148 -2.73438,-2.19922 -1.67059,-1.33697 -3.34933,-2.66386 -5.03906,-3.97656 -2.23645,-1.83232 -4.28822,-3.67788 -6.22656,-5.82422 0,-0.66 0,-1.32 0,-2 z"
     fill="#f72423"
     id="path37" />
  <path
     d="m 76.19837,189.19837 c 0.99,0.495 0.99,0.495 2,1 0.33,0.99 0.66,1.98 1,3 0.99,0.33 1.98,0.66 3,1 1.46484,1.67187 1.46484,1.67187 2.9375,3.75 1.73768,2.43535 3.42416,4.64973 5.4375,6.875 2.06793,3.02236 1.69723,4.76372 1.625,8.375 1.43779,3.79053 3.13049,7.40478 5,11 -7.07348,-6.43043 -11.8639,-14.47068 -16.375,-22.8125 -0.34587,-0.63406 -0.69174,-1.26812 -1.0481,-1.92139 -1.79272,-3.39698 -3.06789,-6.44852 -3.5769,-10.26611 z"
     fill="#f32c2f"
     id="path38" />
  <path
     d="m 620.19837,374.19837 c 0.33,0 0.66,0 1,0 0.59133,12.17152 -0.41301,21.97434 -8,32 -1.98,-0.99 -3.96,-1.98 -6,-3 0.58314,-3.52219 1.83944,-5.16148 4.3125,-7.6875 5.7575,-6.37227 8.07037,-12.82696 8.6875,-21.3125 z"
     fill="#15b04c"
     id="path39" />
  <path
     d="m 444.19837,375.19837 c 0.33,0 0.66,0 1,0 0.57866,9.06565 0.0163,18.07063 -5.23828,25.82812 -2.2637,2.43891 -4.44384,3.80323 -7.76172,4.17188 0,-0.66 0,-1.32 0,-2 -0.66,-0.33 -1.32,-0.66 -2,-1 0,-0.66 0,-1.32 0,-2 0.86625,-0.66 1.7325,-1.32 2.625,-2 7.23917,-5.84966 10.26443,-14.00055 11.375,-23 z"
     fill="#1bb44e"
     id="path40" />
  <path
     d="m 372.19837,252.19837 c 5.24058,1.79108 8.92817,4.96157 13.18359,8.41797 3.45421,1.9403 5.07375,1.6238 8.81641,0.58203 2.76521,4.80906 3.64245,8.54733 4,14 -0.33,0.99 -0.66,1.98 -1,3 -0.66,0 -1.32,0 -2,0 -0.30293,-0.65227 -0.60586,-1.30453 -0.91797,-1.97656 -0.41894,-0.87399 -0.83789,-1.74797 -1.26953,-2.64844 -0.40605,-0.85852 -0.81211,-1.71703 -1.23047,-2.60156 -3.48216,-6.10453 -7.59536,-9.82973 -13.39453,-13.58594 -2.08192,-1.37223 -4.13995,-2.76351 -6.1875,-4.1875 0,-0.33 0,-0.66 0,-1 z"
     fill="#f72827"
     id="path41" />
  <path
     d="m 156.19837,419.19837 c 6.93,0 13.86,0 21,0 0,3.63 0,7.26 0,11 -0.33,0 -0.66,0 -1,0 0,-2.64 0,-5.28 0,-8 -1.65,0 -3.3,0 -5,0 -0.33,0.99 -0.66,1.98 -1,3 -3.96,0 -7.92,0 -12,0 0,1.32 0,2.64 0,4 -0.66,0 -1.32,0 -2,0 0,-3.3 0,-6.6 0,-10 z"
     fill="#0177d4"
     id="path42" />
  <path
     d="m 660.19837,247.19837 c 2,2 2,2 2.125,5.125 -0.0412,0.94875 -0.0825,1.8975 -0.125,2.875 0.99,0 1.98,0 3,0 0.55687,1.19625 1.11375,2.3925 1.6875,3.625 1.42846,2.89277 2.92645,5.27151 5.0625,7.6875 2.25,2.6875 2.25,2.6875 2.25,5.6875 -0.99,0 -1.98,0 -3,0 0.66,0.66 1.32,1.32 2,2 0.625,2.125 0.625,2.125 1,4 -4.20938,-3.80463 -6.75338,-7.61264 -9.25,-12.6875 -0.52594,-1.05478 -0.52594,-1.05478 -1.0625,-2.13086 -2.60053,-5.4561 -3.6875,-10.08678 -3.6875,-16.18164 z"
     fill="#f23233"
     id="path43" />
  <path
     d="m 782.19837,237.19837 c 2.30824,6.39668 -1.88313,13.47438 -4.46484,19.3125 -2.38488,4.95181 -4.43905,8.94451 -8.53516,12.6875 -0.19531,-6.05469 -0.19531,-6.05469 0,-8 0.66,-0.66 1.32,-1.32 2,-2 1.32,0 2.64,0 4,0 -0.26813,-1.13437 -0.53625,-2.26875 -0.8125,-3.4375 -0.74429,-5.47446 1.8562,-9.1434 4.8125,-13.5625 0.66,0 1.32,0 2,0 0.33,-1.65 0.66,-3.3 1,-5 z"
     fill="#f42b2c"
     id="path44" />
  <path
     d="m 546.19837,373.19837 c 0.33,0 0.66,0 1,0 0.14695,1.17756 0.14695,1.17756 0.29687,2.37891 0.92608,6.50644 2.03251,11.17077 5.70313,16.62109 1.67851,2.73534 2.98353,4.95059 4,8 -0.99,0.99 -1.98,1.98 -3,3 -0.61875,-0.96938 -1.2375,-1.93875 -1.875,-2.9375 -1.78179,-3.09085 -1.78179,-3.09085 -4.125,-4.0625 -2.58671,-4.58554 -2.22967,-9.21201 -2.125,-14.3125 0.009,-0.83596 0.0181,-1.67191 0.0273,-2.5332 0.0235,-2.05156 0.0593,-4.10297 0.0977,-6.1543 z"
     fill="#1cb454"
     id="path45" />
  <path
     d="m 679.19837,375.19837 c 0.33,0 0.66,0 1,0 0.24234,0.86883 0.48469,1.73766 0.73437,2.63281 1.93933,7.30349 1.93933,7.30349 5.51563,13.86719 1.95686,2.79551 2.14253,4.16346 1.75,7.5 -1.65,0.33 -3.3,0.66 -5,1 -3.4466,-8.53958 -4.53345,-15.81284 -4,-25 z"
     fill="#1bb441"
     id="path46" />
  <path
     d="m 129.19837,375.19837 c 0.33,0 0.66,0 1,0 0.33,3.3 0.66,6.6 1,10 0.66,0 1.32,0 2,0 2.63366,4.92213 4.64476,9.57903 6,15 -1.32,0.33 -2.64,0.66 -4,1 -3,-5.75 -3,-5.75 -3,-8 -0.66,0 -1.32,0 -2,0 -1.20393,-3.754 -1.09878,-7.33217 -1.0625,-11.25 0.009,-1.26328 0.018,-2.52656 0.0273,-3.82813 0.0116,-0.96421 0.0232,-1.92843 0.0352,-2.92187 z"
     fill="#1eb654"
     id="path47" />
  <path
     d="m 729.19837,343.19837 c -2,2 -2,2 -3.91797,2.16016 -0.74894,-0.0322 -1.49789,-0.0645 -2.26953,-0.0977 -4.04596,-0.0976 -7.80745,0.30926 -11.8125,0.9375 -1.32,0 -2.64,0 -4,0 -2.01496,0.61999 -4.01874,1.27954 -6,2 0,-2 0,-2 1.0625,-3.5 7.53446,-5.83313 18.47851,-4.00637 26.9375,-1.5 z"
     fill="#73d63b"
     id="path48" />
  <path
     d="m 544.19837,274.19837 c 4.79947,0.28232 8.54155,2.80068 12,6 0,0.66 0,1.32 0,2 0.66,0 1.32,0 2,0 0,0.66 0,1.32 0,2 -1.65,0 -3.3,0 -5,0 -0.33,-0.66 -0.66,-1.32 -1,-2 -0.66,0 -1.32,0 -2,0 0,0.99 0,1.98 0,3 -2.468,-1.15173 -4.04784,-2.04784 -6,-4 -0.6875,-3.0625 -0.6875,-3.0625 -1,-6 0.33,-0.33 0.66,-0.66 1,-1 z"
     fill="#ee363a"
     id="path49" />
  <path
     d="m 573.19837,312.19837 c 1.9831,3.96621 2.24052,5.39142 2.19531,9.64062 -0.006,1.06993 -0.0129,2.13985 -0.0195,3.24219 -0.0168,1.11117 -0.0335,2.22235 -0.0508,3.36719 -0.009,1.12664 -0.0181,2.25328 -0.0273,3.41406 -0.0236,2.77874 -0.0594,5.55737 -0.0977,8.33594 4.95,0 9.9,0 15,0 0,0.33 0,0.66 0,1 -8.415,0.495 -8.415,0.495 -17,1 0,-9.9 0,-19.8 0,-30 z"
     fill="#fd2725"
     id="path50" />
  <path
     d="m 589.19837,341.19837 c 0.33,0.66 0.66,1.32 1,2 -5.37331,3.39367 -9.86946,3.32712 -16,3 0,-0.66 0,-1.32 0,-2 -2.31,1.32 -4.62,2.64 -7,4 -0.33,-0.99 -0.66,-1.98 -1,-3 7.86335,-3.46731 14.4293,-4.53847 23,-4 z"
     fill="#74d53a"
     id="path51" />
  <path
     d="m 736.19837,298.19837 c -1.07935,2.22653 -2.21645,4.36593 -3.47705,6.49707 -4.59262,8.16059 -5.41729,14.98705 -5.39795,24.25293 -0.0206,1.28133 -0.0412,2.56266 -0.0625,3.88281 -0.0466,3.12306 -0.067,6.24386 -0.0625,9.36719 -0.33,0 -0.66,0 -1,0 -0.0998,-4.10751 -0.17193,-8.21454 -0.21973,-12.323 -0.0199,-1.39368 -0.0471,-2.78728 -0.082,-4.18066 -0.18268,-7.48736 -0.31849,-14.07658 3.45996,-20.77564 1.09282,-1.86251 1.09282,-1.86251 0.5918,-4.7832 -0.37125,-0.95906 -0.37125,-0.95906 -0.75,-1.9375 3.01032,-0.93424 3.8665,-1.0445 7,0 z"
     fill="#f91e1f"
     id="path52" />
  <path
     d="m 706.19837,419.19837 c 6.93,0 13.86,0 21,0 0,3.63 0,7.26 0,11 -2.31,0 -4.62,0 -7,0 0.71156,-0.83531 0.71156,-0.83531 1.4375,-1.6875 1.94706,-2.56055 1.94706,-2.56055 2.5625,-7.3125 -5.28,0 -10.56,0 -16,0 -0.33,2.64 -0.66,5.28 -1,8 -0.33,0 -0.66,0 -1,0 0,-3.3 0,-6.6 0,-10 z"
     fill="#0173d6"
     id="path54" />
  <path
     d="m 131.19837,393.19837 c 1.74272,2.29722 3.39911,4.59867 5,7 0.99,0 1.98,0 3,0 -0.33,-1.32 -0.66,-2.64 -1,-4 2.5625,2.1875 2.5625,2.1875 5,5 -0.19048,4.19048 -0.19048,4.19048 -2,6 1.32,1.65 2.64,3.3 4,5 -5.97178,-2.57246 -9.72488,-7.81995 -12.9375,-13.3125 -1.0625,-2.6875 -1.0625,-2.6875 -1.0625,-5.6875 z"
     fill="#0fad48"
     id="path55" />
  <path
     d="m 420.19837,343.19837 c -3.64418,2.42945 -5.71241,2.1618 -10,2 0,-0.66 0,-1.32 0,-2 -1.17563,0.52594 -1.17563,0.52594 -2.375,1.0625 -4.7567,1.23018 -8.8139,0.6411 -13.625,-0.0625 7.74937,-5.16625 17.46271,-3.3096 26,-1 z"
     fill="#70da3c"
     id="path57" />
  <path
     d="m 491.19837,200.19837 c 0.66,0.33 1.32,0.66 2,1 -1.46032,5.31027 -3.98321,9.4633 -7,14 -0.99,-0.33 -1.98,-0.66 -3,-1 0,0.66 0,1.32 0,2 -0.66,0 -1.32,0 -2,0 -0.33,-0.99 -0.66,-1.98 -1,-3 0.68836,-0.65355 0.68836,-0.65355 1.39062,-1.32031 3.77293,-3.66196 6.8717,-7.18989 9.60938,-11.67969 z"
     fill="#ef383a"
     id="path58" />
  <path
     d="m 177.19837,342.19837 c -2.54973,2.58382 -4.52052,3.22648 -8.03906,3.36328 -1.52874,-10e-4 -3.05754,-0.0187 -4.58594,-0.0508 -0.77602,0.003 -1.55203,0.006 -2.35156,0.01 -5.75614,-0.0552 -5.75614,-0.0552 -8.02344,-2.32248 7.64247,-2.65825 15.08348,-2.66664 23,-1 z"
     fill="#74d53b"
     id="path59" />
  <path
     d="m 203.19837,373.19837 c 0.33,0 0.66,0 1,0 0.054,2.75026 0.0937,5.49946 0.125,8.25 0.0251,1.16596 0.0251,1.16596 0.0508,2.35547 0.0594,6.95055 -1.70496,10.02954 -6.17578,15.39453 -1.36565,-3.10376 -0.93172,-4.17884 0.3125,-7.4375 0.92945,-1.96217 1.86269,-3.92261 2.8125,-5.875 1.34622,-4.13482 1.5562,-8.36689 1.875,-12.6875 z"
     fill="#21b645"
     id="path60" />
  <path
     d="m 393.19837,261.19837 c 3.07105,2.49734 3.60907,4.65444 4.25,8.5 0.25523,1.43859 0.25523,1.43859 0.51562,2.90625 0.23438,2.59375 0.23438,2.59375 -0.76562,5.59375 -0.66,0 -1.32,0 -2,0 -1.73464,-3.05156 -2.36672,-5.576 -2.6875,-9.0625 -0.0864,-0.85723 -0.17273,-1.71445 -0.26172,-2.59766 -0.0508,-2.33984 -0.0508,-2.33984 0.94922,-5.33984 z"
     fill="#ee363b"
     id="path61" />
  <path
     d="m 536.19837,273.19837 c 5.75,1.75 5.75,1.75 8,4 0.26555,0.76699 0.53109,1.53398 0.80469,2.32422 1.51433,3.38992 3.51567,5.07917 6.32031,7.48828 0.91008,0.79019 1.82016,1.58039 2.75781,2.39453 0.69867,0.59168 1.39735,1.18336 2.11719,1.79297 -4.22571,0 -5.98077,-2.41771 -8.875,-5.1875 -0.77537,-0.72413 -0.77537,-0.72413 -1.56641,-1.46289 -1.53195,-1.43741 -3.04639,-2.89145 -4.55859,-4.34961 -0.95133,-0.90363 -1.90266,-1.80727 -2.88281,-2.73828 -2.11719,-2.26172 -2.11719,-2.26172 -2.11719,-4.26172 z"
     fill="#f72425"
     id="path62" />
  <path
     d="m 663.19837,259.19837 c 2.01136,2.55992 3.62846,5.0459 5,8 0.99,-0.66 1.98,-1.32 3,-2 3,3.625 3,3.625 3,7 -0.99,0 -1.98,0 -3,0 0.66,0.66 1.32,1.32 2,2 0.625,2.125 0.625,2.125 1,4 -5.1383,-4.38267 -8.23887,-9.87048 -11,-16 0,-0.99 0,-1.98 0,-3 z"
     fill="#f3272b"
     id="path64" />
  <path
     d="m 498.19837,187.19837 c 1.91415,4.93398 -0.5884,8.89048 -2.46094,13.51953 -6.08085,13.75136 -6.08085,13.75136 -9.53906,15.48047 1.17575,-3.13533 2.55055,-6.05209 4.125,-9 1.66201,-3.22661 1.98219,-5.35558 1.875,-9 0.99,-0.66 1.98,-1.32 3,-2 1.00806,-2.17897 1.00806,-2.17897 1.6875,-4.625 0.25137,-0.81727 0.50273,-1.63453 0.76172,-2.47656 0.18176,-0.62649 0.36351,-1.25297 0.55078,-1.89844 z"
     fill="#f8191a"
     id="path65" />
  <path
     d="m 753.19837,374.19837 c 0.33,0 0.66,0 1,0 0.55353,16.89294 0.55353,16.89294 -3,24 -1,-3 -1,-3 -1,-5 -0.66,-0.66 -1.32,-1.32 -2,-2 0.63937,-1.13437 1.27875,-2.26875 1.9375,-3.4375 2.26012,-4.46434 2.83313,-8.60806 3.0625,-13.5625 z"
     fill="#1fb436"
     id="path66" />
  <path
     d="m 370.19837,385.19837 c 1.64935,2.0079 2.88198,3.51315 3.5,6.0625 0.32292,2.05208 0.32292,2.05208 2.0625,3.1875 2.40253,2.92482 1.61857,6.0682 1.4375,9.75 -4.03066,-3.64953 -6.61169,-8.72025 -7.25391,-14.14453 0.004,-1.91797 0.004,-1.91797 0.25391,-4.85547 z"
     fill="#17af46"
     id="path67" />
  <path
     d="m 614.19837,358.19837 c 3.97474,3.56356 5.6925,7.8895 7,13 0.17881,5.27476 -0.0414,9.5621 -3,14 -1.125,-6.625 -1.125,-6.625 0,-10 -0.0432,-5.66968 -1.21175,-10.02964 -4,-15 0,-0.66 0,-1.32 0,-2 z"
     fill="#53c838"
     id="path68" />
  <path
     d="m 178.19837,267.19837 c 2.97,0.495 2.97,0.495 6,1 -1.41807,4.47239 -3.11304,8.71146 -5,13 -2.36574,-3.54861 -2.10865,-4.57645 -1.625,-8.6875 0.11086,-0.99387 0.22172,-1.98773 0.33594,-3.01172 0.0954,-0.75926 0.19078,-1.51851 0.28906,-2.30078 z"
     fill="#f72929"
     id="path69" />
  <path
     d="m 411.19837,417.19837 c 1.99962,0.0392 4.00049,0.0444 6,0 0,0.66 0,1.32 0,2 -3.36992,1.0126 -6.48897,1.16556 -10,1.1875 -1.03125,0.0142 -2.0625,0.0284 -3.125,0.043 -2.84045,-0.2277 -4.46608,-0.76543 -6.875,-2.23047 1.76896,-0.3634 3.54027,-0.71541 5.3125,-1.0625 0.98613,-0.19723 1.97227,-0.39445 2.98828,-0.59766 2.69922,-0.33987 2.69922,-0.33987 5.69922,0.66013 z"
     fill="#0dba4f"
     id="path70" />
  <path
     d="m 158.19837,416.19837 c 6.27,0.33 12.54,0.66 19,1 0,0.66 0,1.32 0,2 -3.6004,0.82482 -6.93351,1.13517 -10.625,1.125 -0.94102,0.003 -1.88203,0.005 -2.85156,0.008 -2.52344,-0.133 -2.52344,-0.133 -5.52344,-1.133 0,-0.99 0,-1.98 0,-3 z"
     fill="#0dbf48"
     id="path71" />
  <path
     d="m 634.19837,259.19837 c 0.99,0.33 1.98,0.66 3,1 -0.55989,3.99012 -1.7567,6.52551 -4.0625,9.8125 -0.82178,1.18529 -0.82178,1.18529 -1.66016,2.39453 -0.42152,0.59168 -0.84304,1.18336 -1.27734,1.79297 -0.84062,-3.09773 -1.08935,-5.78333 -1,-9 0.66,0 1.32,0 2,0 0,0.66 0,1.32 0,2 0.66,0 1.32,0 2,0 -0.0206,-1.13437 -0.0412,-2.26875 -0.0625,-3.4375 0.0625,-3.5625 0.0625,-3.5625 1.0625,-4.5625 z"
     fill="#f22b2d"
     id="path72" />
  <path
     d="m 206.19837,247.19837 c 1.98,0 3.96,0 6,0 -2.89197,3.08931 -5.85989,5.37225 -9.4375,7.625 -0.92684,0.59039 -1.85367,1.18078 -2.80859,1.78906 -2.53827,1.46175 -5.00835,2.5794 -7.75391,3.58594 0.33,-0.66 0.66,-1.32 1,-2 0.66,0 1.32,0 2,0 0,-0.99 0,-1.98 0,-3 0.93973,-0.36352 0.93973,-0.36352 1.89844,-0.73438 0.81726,-0.33515 1.63453,-0.67031 2.47656,-1.01562 0.81211,-0.32484 1.62422,-0.64969 2.46094,-0.98438 2.49721,-1.46046 3.1465,-2.60432 4.16406,-5.26562 z"
     fill="#f72626"
     id="path73" />
  <path
     d="m 620.19837,374.19837 c 0.33,0 0.66,0 1,0 0.0541,2.41697 0.0937,4.83272 0.125,7.25 0.0251,1.02287 0.0251,1.02287 0.0508,2.06641 0.0592,6.09596 -1.50835,9.01596 -5.17578,13.68359 -0.31702,-6.02341 0.50932,-9.42088 3,-15 0.50966,-2.67569 0.76148,-5.2809 1,-8 z"
     fill="#20b443"
     id="path75" />
  <path
     d="m 336.19837,224.19837 c 2,1 2,1 3.1875,3.375 2.47983,3.59149 4.75112,4.16903 8.8125,5.625 0,0.66 0,1.32 0,2 0.66,0 1.32,0 2,0 0.33,1.32 0.66,2.64 1,4 -4.49109,-1.42861 -7.46169,-3.93077 -10.8125,-7.125 -0.50209,-0.46793 -1.00418,-0.93586 -1.52148,-1.41797 -1.22791,-1.14605 -2.4478,-2.30068 -3.66602,-3.45703 0.33,-0.99 0.66,-1.98 1,-3 z"
     fill="#f82828"
     id="path76" />
  <path
     d="m 733.19837,414.19837 c 0.66,0.33 1.32,0.66 2,1 -1.26955,0.64835 -2.5407,1.29358 -3.8125,1.9375 -0.7077,0.35965 -1.41539,0.7193 -2.14453,1.08984 -3.57447,1.70181 -6.31939,2.08595 -10.23047,2.03516 -1.35158,-0.0135 -1.35158,-0.0135 -2.73047,-0.0273 -0.68707,-0.0116 -1.37414,-0.0232 -2.08203,-0.0352 0.66,-0.33 1.32,-0.66 2,-1 0,-0.66 0,-1.32 0,-2 0.80824,-0.049 1.61648,-0.098 2.44922,-0.14844 1.06863,-0.0748 2.13726,-0.14953 3.23828,-0.22656 1.58361,-0.10441 1.58361,-0.10441 3.19922,-0.21094 3.02232,-0.40196 5.30782,-1.28401 8.11328,-2.41406 z"
     fill="#09b34d"
     id="path77" />
  <path
     d="m 616.19837,390.19837 c 1.60226,4.00565 0.47695,7.08609 -1,11 -0.99,0.33 -1.98,0.66 -3,1 -0.99,-0.99 -1.98,-1.98 -3,-3 0.97819,-1.31323 1.95758,-2.62556 2.9375,-3.9375 0.54527,-0.7309 1.09055,-1.4618 1.65234,-2.21484 1.41016,-1.84766 1.41016,-1.84766 2.41016,-2.84766 z"
     fill="#1cb555"
     id="path78" />
  <path
     d="m 351.19837,239.19837 c 1.46184,0.2286 2.91955,0.4837 4.375,0.75 1.21816,0.20883 1.21816,0.20883 2.46094,0.42187 2.81489,1.07718 2.87975,2.18168 4.16406,4.82813 2.38454,1.76841 2.38454,1.76841 5.125,3.25 0.91008,0.52078 1.82016,1.04156 2.75781,1.57812 0.69867,0.38672 1.39735,0.77344 2.11719,1.17188 -0.99,0.495 -0.99,0.495 -2,1 -1.86352,-0.8645 -1.86352,-0.8645 -4.09766,-2.23828 -0.80115,-0.49049 -1.6023,-0.98098 -2.42773,-1.48633 -0.83725,-0.524 -1.67449,-1.04801 -2.53711,-1.58789 -1.26167,-0.7686 -1.26167,-0.7686 -2.54883,-1.55273 -6.2539,-3.86523 -6.2539,-3.86523 -7.38867,-6.13477 z"
     fill="#fa1d1d"
     id="path79" />
  <path
     d="m 521.19837,244.19837 c 1.32,0.33 2.64,0.66 4,1 -0.33,1.98 -0.66,3.96 -1,6 0.99,0.33 1.98,0.66 3,1 -0.66,0 -1.32,0 -2,0 0.37254,0.69867 0.74508,1.39734 1.12891,2.11719 0.47308,0.91008 0.94617,1.82015 1.43359,2.75781 0.47566,0.90492 0.95133,1.80984 1.44141,2.74219 0.32871,0.78633 0.65742,1.57265 0.99609,2.38281 -0.33,0.66 -0.66,1.32 -1,2 -1.15607,-2.20348 -2.29985,-4.41203 -3.4375,-6.625 -0.48823,-0.92619 -0.48823,-0.92619 -0.98633,-1.87109 -1.95877,-3.83677 -3.10838,-7.22135 -3.57617,-11.50391 z"
     fill="#f62324"
     id="path80" />
  <path
     d="m 683.19837,390.19837 c 0.66,0 1.32,0 2,0 2.21748,2.30277 2.9676,3.5248 3.1875,6.75 -0.0619,0.7425 -0.12375,1.485 -0.1875,2.25 -1.65,0.33 -3.3,0.66 -5,1 -0.95025,-3.69542 -0.95025,-6.30458 0,-10 z"
     fill="#1cb552"
     id="path82" />
  <path
     d="m 728.19837,299.19837 c 0.99,0.66 1.98,1.32 3,2 -0.57634,4.75482 -2.55069,7.97048 -5,12 -0.33,0 -0.66,0 -1,0 0.41154,-4.97094 0.79601,-9.44508 3,-14 z"
     fill="#ef393b"
     id="path83" />
  <path
     d="m 318.19837,206.19837 c 1.08281,1.02094 1.08281,1.02094 2.1875,2.0625 2.63307,2.25487 2.63307,2.25487 5.625,1.6875 0.72187,-0.2475 1.44375,-0.495 2.1875,-0.75 0.33,1.32 0.66,2.64 1,4 -0.99,0 -1.98,0 -3,0 0.33,1.65 0.66,3.3 1,5 -3.25516,-3.16474 -6.32009,-6.32753 -9,-10 0,-0.66 0,-1.32 0,-2 z"
     fill="#f6282a"
     id="path84" />
  <path
     d="m 419.19837,689.19837 c 0.33,0 0.66,0 1,0 0.22731,6.93302 -0.57998,13.21686 -2,20 -0.33,0 -0.66,0 -1,0 -0.0539,-2.77109 -0.0936,-5.54114 -0.125,-8.3125 -0.0168,-0.78568 -0.0335,-1.57137 -0.0508,-2.38086 -0.01,-1.13599 -0.01,-1.13599 -0.0195,-2.29492 -0.0105,-0.6965 -0.0209,-1.39299 -0.0317,-2.1106 0.227,-1.90112 0.227,-1.90112 2.227,-4.90112 z"
     fill="#18b1e9"
     id="path85" />
  <path
     d="m 546.19837,373.19837 c 0.33,0 0.66,0 1,0 1.21787,6.98795 2.29411,13.9411 3,21 -1.98438,-0.92578 -1.98438,-0.92578 -4,-3 -0.52339,-3.06834 -0.37473,-6.08608 -0.25,-9.1875 0.0181,-0.84498 0.0361,-1.68996 0.0547,-2.56055 0.0471,-2.08447 0.11884,-4.16835 0.1953,-6.25195 z"
     fill="#26b841"
     id="path86" />
  <path
     d="m 464.19837,156.19837 c 0.66,0.33 1.32,0.66 2,1 -1.45538,0.83849 -2.9144,1.67064 -4.375,2.5 -1.21816,0.69609 -1.21816,0.69609 -2.46094,1.40625 -2.16406,1.09375 -2.16406,1.09375 -4.16406,1.09375 -0.33,1.32 -0.66,2.64 -1,4 -0.99,0 -1.98,0 -3,0 0,-0.99 0,-1.98 0,-3 2.11998,-1.19734 4.24514,-2.38299 6.375,-3.5625 0.60328,-0.34225 1.20656,-0.68449 1.82812,-1.03711 1.56666,-0.86166 3.17979,-1.63757 4.79688,-2.40039 z"
     fill="#fc3126"
     id="path88" />
  <path
     d="m 422.19837,270.19837 c 0.33,0.66 0.66,1.32 1,2 -0.93579,2.35982 -1.93348,4.69631 -3,7 -0.66,0 -1.32,0 -2,0 -0.33,0.66 -0.66,1.32 -1,2 0,-2.31 0,-4.62 0,-7 0.66,0 1.32,0 2,0 0,-0.99 0,-1.98 0,-3 0.99,-0.33 1.98,-0.66 3,-1 z"
     fill="#f6282a"
     id="path89" />
  <path
     d="m 763.19837,209.19837 c -1.6225,0.83819 -3.24808,1.67041 -4.875,2.5 -0.90492,0.46406 -1.80984,0.92813 -2.74219,1.40625 -2.38281,1.09375 -2.38281,1.09375 -4.38281,1.09375 0,0.99 0,1.98 0,3 -1.65,0 -3.3,0 -5,0 3.75611,-4.60978 11.03088,-9.98971 17,-8 z"
     fill="#fe281e"
     id="path90" />
  <path
     d="m 149.19837,189.19837 c 2.3251,2.13802 3.82167,4.18598 5.25,7 0.35578,0.68063 0.71156,1.36125 1.07812,2.0625 0.67188,1.9375 0.67188,1.9375 -0.32812,4.9375 -0.10313,-0.63937 -0.20625,-1.27875 -0.3125,-1.9375 -0.22688,-0.68063 -0.45375,-1.36125 -0.6875,-2.0625 -0.99,-0.33 -1.98,-0.66 -3,-1 -0.73047,-2.06641 -0.73047,-2.06641 -1.1875,-4.5625 -0.15855,-0.82629 -0.31711,-1.65258 -0.48047,-2.50391 -0.16435,-0.95713 -0.16435,-0.95713 -0.33203,-1.93359 z"
     fill="#fc3026"
     id="path91" />
  <path
     d="m 742.19837,402.19837 c 1.65,0.33 3.3,0.66 5,1 -1.44254,3.36592 -3.33265,5.51047 -6,8 -0.66,-0.33 -1.32,-0.66 -2,-1 1.32,-1.65 2.64,-3.3 4,-5 -0.66,-0.33 -1.32,-0.66 -2,-1 0.33,-0.66 0.66,-1.32 1,-2 z"
     fill="#0fac47"
     id="path92" />
  <path
     d="m 547.19837,388.19837 c 0.66,1.32 1.32,2.64 2,4 0.33,-1.32 0.66,-2.64 1,-4 0.99,1.65 1.98,3.3 3,5 -1.375,1.5 -1.375,1.5 -3,3 -0.66,0 -1.32,0 -2,0 -0.33,-2.64 -0.66,-5.28 -1,-8 z"
     fill="#19b247"
     id="path95" />
  <path
     d="m 129.19837,375.19837 c 0.33,0 0.66,0 1,0 0.36545,1.89369 0.71689,3.79009 1.0625,5.6875 0.19723,1.05574 0.39445,2.11148 0.59766,3.19922 0.33019,3.02487 0.11459,5.19309 -0.66016,8.11328 -2.49119,-3.73678 -2.20652,-5.74452 -2.125,-10.1875 0.018,-1.2723 0.0361,-2.54461 0.0547,-3.85547 0.0232,-0.97582 0.0464,-1.95164 0.0703,-2.95703 z"
     fill="#15ae2f"
     id="path96" />
  <path
     d="m 498.19837,187.19837 c 1.12025,3.33027 0.89424,5.36542 -0.1875,8.6875 -0.24105,0.78762 -0.48211,1.57523 -0.73047,2.38672 -1.08203,1.92578 -1.08203,1.92578 -3.19531,2.69531 -0.62262,0.0761 -1.24524,0.15211 -1.88672,0.23047 0.375,-1.9375 0.375,-1.9375 1,-4 0.66,-0.33 1.32,-0.66 2,-1 0.90725,-2.11327 0.90725,-2.11327 1.625,-4.5625 0.39059,-1.23943 0.39059,-1.23943 0.78906,-2.50391 0.19336,-0.63808 0.38672,-1.27617 0.58594,-1.93359 z"
     fill="#f52627"
     id="path97" />
  <path
     d="m 628.19837,269.19837 c 0.66,0.33 1.32,0.66 2,1 0,1.65 0,3.3 0,5 -1.65,0.33 -3.3,0.66 -5,1 0.375,-2.9375 0.375,-2.9375 1,-6 0.66,-0.33 1.32,-0.66 2,-1 z"
     fill="#f23c3d"
     id="path98" />
  <path
     d="m 206.19837,163.19837 c 0.33,0.99 0.66,1.98 1,3 -2.94654,1.80066 -5.88802,3.50164 -9,5 1.51708,-3.53986 3.75323,-8 8,-8 z"
     fill="#fa3b32"
     id="path99" />
  <path
     d="m 320.19837,594.19837 c 2.75586,4.13379 3.10756,6.05204 3,11 -0.99,0 -1.98,0 -3,0 0,-3.63 0,-7.26 0,-11 z"
     fill="#17b2e9"
     id="path100" />
  <path
     d="m 369.19837,377.19837 c 2.95183,2.95183 3.08664,5.95512 4,10 -1.32,0.33 -2.64,0.66 -4,1 0,-3.63 0,-7.26 0,-11 z"
     fill="#2ab94b"
     id="path101" />
  <path
     d="m 154.19837,347.19837 c -0.59813,0.26812 -1.19625,0.53625 -1.8125,0.8125 -2.24261,1.05697 -2.24261,1.05697 -3.6875,2.875 -0.495,0.43313 -0.99,0.86625 -1.5,1.3125 -2.1875,-0.3125 -2.1875,-0.3125 -4,-1 0.66,-0.33 1.32,-0.66 2,-1 0.66,-0.99 1.32,-1.98 2,-3 2.97904,-1.15318 3.86559,-1.0448 7,0 z"
     fill="#6bd13f"
     id="path102" />
  <path
     d="m 575.19837,342.19837 c 0,0.66 0,1.32 0,2 0.66,0.33 1.32,0.66 2,1 -0.99,0.33 -1.98,0.66 -3,1 0,-0.66 0,-1.32 0,-2 -2.31,1.32 -4.62,2.64 -7,4 -0.33,-0.99 -0.66,-1.98 -1,-3 6.75,-3 6.75,-3 9,-3 z"
     fill="#71ce35"
     id="path103" />
  <path
     d="m 393.19837,271.19837 c 1.32,0 2.64,0 4,0 0.93424,3.01032 1.0445,3.8665 0,7 -0.66,0 -1.32,0 -2,0 -1.46063,-2.64739 -2,-3.89448 -2,-7 z"
     fill="#f62a2c"
     id="path105" />
  <path
     d="m 193.19837,694.19837 c 2.83375,3.20337 3.52055,5.78087 4,10 -0.99,0 -1.98,0 -3,0 -1.60726,-3.21451 -1.05748,-6.43613 -1,-10 z"
     fill="#2eb9ec"
     id="path106" />
  <path
     d="m 699.19837,410.19837 c 1.5,1.3125 1.5,1.3125 3,3 0,0.99 0,1.98 0,3 -5.75,-1.625 -5.75,-1.625 -8,-5 1.32,0.33 2.64,0.66 4,1 0.33,-0.66 0.66,-1.32 1,-2 z"
     fill="#0aa946"
     id="path107" />
  <path
     d="m 132.19837,385.19837 c 2,3 2,3 3,6 -0.33,0.66 -0.66,1.32 -1,2 -1.32,-0.33 -2.64,-0.66 -4,-1 0.66,-2.31 1.32,-4.62 2,-7 z"
     fill="#29b950"
     id="path108" />
  <path
     d="m 385.19837,350.19837 c 0,0.99 0,1.98 0,3 -3,2.1875 -3,2.1875 -6,4 0.1875,-2.375 0.1875,-2.375 1,-5 2.5625,-1.3125 2.5625,-1.3125 5,-2 z"
     fill="#65d03c"
     id="path109" />
  <path
     d="m 432.19837,262.19837 c -2.64,2.64 -5.28,5.28 -8,8 0,-4.61538 0,-4.61538 1,-7 4.33333,-2.33333 4.33333,-2.33333 7,-1 z"
     fill="#f92022"
     id="path110" />
  <path
     d="m 750.19837,389.19837 c 0.99,0 1.98,0 3,0 -0.75,6.75 -0.75,6.75 -3,9 0.0412,-0.78375 0.0825,-1.5675 0.125,-2.375 0.16229,-2.78616 0.16229,-2.78616 -2.125,-4.625 0.66,-0.66 1.32,-1.32 2,-2 z"
     fill="#15b045"
     id="path112" />
  <path
     d="m 585.19837,417.19837 c 0,0.66 0,1.32 0,2 0.99,0.33 1.98,0.66 3,1 -2.97,0 -5.94,0 -9,0 0,-0.66 0,-1.32 0,-2 2,-1 2,-1 6,-1 z"
     fill="#0ab74f"
     id="path113" />
  <path
     d="m 746.19837,286.19837 c 0.59812,0.165 1.19625,0.33 1.8125,0.5 2.30094,0.61141 2.30094,0.61141 5.1875,0.5 -1.65,1.32 -3.3,2.64 -5,4 -0.66,-0.33 -1.32,-0.66 -2,-1 0,-1.32 0,-2.64 0,-4 z"
     fill="#f82829"
     id="path114" />
  <path
     d="m 211.19837,242.19837 c 1.14469,0.2475 1.14469,0.2475 2.3125,0.5 2.72346,0.59145 2.72346,0.59145 5.6875,0.5 -2.25,2.0625 -2.25,2.0625 -5,4 -2.3125,-0.25 -2.3125,-0.25 -4,-1 0.33,-1.32 0.66,-2.64 1,-4 z"
     fill="#fa2526"
     id="path116" />
  <path
     d="m 351.19837,239.19837 c 1.48206,0.2545 2.96069,0.52912 4.4375,0.8125 1.23557,0.22623 1.23557,0.22623 2.49609,0.45703 1.02287,0.36158 1.02287,0.36158 2.06641,0.73047 0.33,0.99 0.66,1.98 1,3 -7.75,-1.625 -7.75,-1.625 -10,-5 z"
     fill="#fa2a2c"
     id="path117" />
  <path
     d="m 314.19837,195.19837 c 0.99,0.33 1.98,0.66 3,1 -0.18563,0.7425 -0.37125,1.485 -0.5625,2.25 -0.42953,2.69991 -0.28873,4.19631 0.5625,6.75 -2.47902,-1.9401 -2.9967,-2.98626 -3.75,-6.125 -0.0825,-0.94875 -0.165,-1.8975 -0.25,-2.875 0.33,-0.33 0.66,-0.66 1,-1 z"
     fill="#f1282b"
     id="path118" />
  <path
     d="m 301.19837,166.19837 c 0.33,0.66 0.66,1.32 1,2 0.66,0.33 1.32,0.66 2,1 0.75,2.4375 0.75,2.4375 1,5 -0.66,0.66 -1.32,1.32 -2,2 -1.60355,-3.50777 -2.22037,-6.14355 -2,-10 z"
     fill="#fc2722"
     id="path119" />
  <path
     d="m 158.19837,416.19837 c 2.31,0.33 4.62,0.66 7,1 -0.33,0.99 -0.66,1.98 -1,3 -2.97,-0.495 -2.97,-0.495 -6,-1 0,-0.99 0,-1.98 0,-3 z"
     fill="#09b84e"
     id="path120" />
  <path
     d="m 468.19837,233.19837 c 0.66,0.33 1.32,0.66 2,1 -1.39333,3.3672 -2.97893,4.98595 -6,7 -0.66,-0.33 -1.32,-0.66 -2,-1 1.375,-2 1.375,-2 3,-4 0.66,0 1.32,0 2,0 0.33,-0.99 0.66,-1.98 1,-3 z"
     fill="#f82629"
     id="path121" />
  <path
     d="m 255.19837,192.19837 c 1,3 1,3 0.0625,5.1875 -0.52594,0.89719 -0.52594,0.89719 -1.0625,1.8125 -0.99,-0.33 -1.98,-0.66 -3,-1 1.75,-4.875 1.75,-4.875 4,-6 z"
     fill="#f53d3b"
     id="path123" />
</svg>
